<?xml version="1.0" encoding="UTF-8" standalone="no"?>
<svg version="1.1" viewBox="0 0 800.00001 4247.7792" shape-rendering="geometricPrecision"
     text-rendering="geometricPrecision" cached="false" height="600" width="800"
     class="brix-boot-fg-image" fill="white"
     preserveAspectRatio="xMidYMax" id="couple" xmlns="http://www.w3.org/2000/svg"
     xmlns:svg="http://www.w3.org/2000/svg">
  <defs id="defs1">
    <rect x="41.7" y="53.1" width="225.5" height="50.3" id="rect5" />
  </defs>
  <g id="group-i" transform="translate(1.8)">
    <path d="M 74.5 68.1 q 1.7 1.7 -1.9 2.1 q -1.8 0.2 -3.8 0.8 q -2 0.6 -3.1 0.6 h -0.1 q -0.9 0.1 -1 0.5 q -0.1 0.4 0.2 2.6 q 0 0.2 0.1 0.4 q 0.1 1.1 0 1.6 q -0.1 0.5 -0.5 0.9 q -1.2 1.3 -2.9 0.1 q -0.9 -0.6 -0.7 -1.3 q 0.2 -0.7 -0.1 -0.9 q -0.3 -0.2 -1.5 0.2 l -0.1 0.1 q -0.2 0.3 -1.1 0.8 q -0.4 0.2 -0.6 0.3 l -1.2 0.7 l -0.2 0.1 l -0.9 0.1 q -0.6 0 -0.8 0.1 q -0.4 0.1 -1.3 0.2 q -0.2 0 -0.4 0 q -1 -0.1 -2.1 -0.5 q -1 -0.5 -1.9 -1.2 q -0.9 -0.7 -1.6 -1.5 q -0.7 -0.7 -1.3 -1.6 q -0.6 -0.9 -0.9 -1.3 q -0.3 -0.5 -0.5 -0.9 q -0.6 -0.3 -0.8 -0.8 q -0.2 -0.5 -0.3 -1.2 q -0.1 -0.7 -0.3 -1.1 q -0.1 -0.3 0.1 -0.6 q 0.2 -0.3 0.5 -0.2 l 1.7 0.2 q 1.3 -0.4 1.9 -0.2 q 0.6 0.2 1.3 1.3 q 0.4 0.6 0.9 0.9 q 0.5 0.3 1.4 0.6 l 0.1 0 q 0.2 0.1 0.5 0.3 l 0.1 0.1 q 0.2 0 1.2 0.1 q 1.1 0.1 1.3 0.1 q 0.2 0 1.1 0 q 1.2 0 1.4 0 l 0.5 -0.1 q 0.9 -0.1 1.4 -0.2 l -0.1 -0.1 q 0.3 -0.1 0.4 -0.5 q -0.5 -1.2 -0.9 -2.6 q -0.4 -1.3 -0.8 -3.2 q -0.4 -1.9 -0.4 -3.7 q 0 -1.8 0.6 -3.1 l 0.1 -1.3 q 0 -0.2 0.1 -0.9 q 0.1 -0.5 0.1 -0.6 q 0 -0.3 0.3 -1.5 l 0.1 -0.5 q 0.1 -0.4 0.1 -1.2 q 0 -0.1 -0.1 -0.2 q -0.3 -0.5 -0.2 -1.1 q 0.1 -0.5 0.5 -1.1 q 0.2 -0.3 0.4 -0.8 q 0.3 -0.5 0.4 -0.7 q 0.1 -0.2 0.4 -0.6 q 0.3 -0.3 0.6 -0.6 q 0.3 -0.3 0.8 -0.5 q 2.6 -1.5 4.2 -1.5 q 1.1 0 2.1 0.8 q 1.5 0.4 2.3 1.5 q 1.1 1.7 0.3 4.5 q -1.3 5.2 -1.8 6.1 q -0.2 0.3 -0.9 2.3 q -0.5 1.5 -0.7 2 l 0 0 l -0.1 0.1 q -0.1 0.3 -0.3 0.4 q -0.2 0.2 -0.9 1.2 q -0.7 1.7 -1.1 3.3 l 0.1 -0.1 q -0.2 1.9 1.1 2.2 l 0.1 -0.1 q 0.4 0.2 4.3 -0.4 q 2.9 -0.5 3.5 -0.5 q 0.6 0 1.2 0.6 z m -20 7 l 2.7 -1.2 l -1.3 -0.2 l -2.6 -0.6 q -1.1 -0.4 -1.6 -0.4 q -0.3 0 -0.6 -0.1 q -0.4 -0.1 -0.9 -0.2 q -1.1 -0.1 -1.8 -0.4 q -0.1 -0.1 -0.4 -0.1 q -0.3 -0.1 -0.4 -0.1 h -0.2 q 1.2 1.2 1.4 1.5 q 0.1 0.1 0.1 0.1 q 0.1 0.1 0.1 0.1 q 0.1 0.1 0.2 0.1 q 0.1 0.1 0.2 0.1 q 0.1 0.1 0.3 0.2 q 0.2 0.1 0.3 0.2 q 1.2 0.7 2.1 0.9 z m 8.6 -17.7 l 1.3 -3.3 q 0.2 -1.7 0.4 -2 q 0 -0.1 0.1 -0.6 q 0.1 -0.7 0.1 -0.9 q 0.1 -0.4 0.1 -1.3 q 0 -0.9 -0.2 -1.1 q 0 0 -0.1 0 q -0.1 0 -0.2 0.1 q -0.1 0.1 -0.2 0.2 l -0.2 0.2 l -0.2 -0.1 q -0.8 0.5 -1.3 3.6 q -0.7 2.5 -0.8 2.8 q 0 0.2 -0.2 0.6 q -0.3 0.7 -0.5 1.3 q -0.3 1.1 -0.5 5.2 l 0.1 1.8 l 0.3 1.1 q 0.1 -0.3 0.2 -0.6 l 0.7 -1.8 z"
          id="text14"
          style="stroke-width: 3; stroke-linecap: round; stroke-linejoin: round;"
          transform="matrix(7.1,0,0,7.1,-741.3,674)" aria-label="I" opacity="0">
      <animate attributeName="opacity" from="0" to="1" begin="3s" dur="0.3s" fill="freeze" />
    </path>
  </g>
  <g id="g14" transform="translate(1.8)">
    <path d="M 91.8 68.3 q -1 1.2 -1.7 2.2 q -0.7 1 -0.6 1.3 q 0 0.5 0.8 2.1 q 1 1.9 2.3 1.9 q 0.3 0 0.5 -0.1 q 0.3 -0.1 0.7 -0.2 q 0.4 -0.1 0.5 -0.2 q 0.3 -0.1 1.1 -0.5 q 0.9 -0.6 1.7 -1.2 q 0.6 -0.6 1.1 -0.5 q 0.5 0.1 0.5 0.9 q 0 0.3 -0.1 0.5 q -0.1 0.3 -0.3 0.5 q -0.1 0.2 -0.4 0.4 q -0.3 0.2 -0.5 0.4 q -0.2 0.1 -0.5 0.3 q -0.3 0.2 -0.4 0.3 q -0.2 0.1 -0.7 0.4 q -0.5 0.3 -0.7 0.4 q -1 0.7 -2 0.8 q -1 0.1 -1.5 0 q -0.5 -0.1 -1.5 -0.8 q -1.2 -0.9 -2 -1.8 q -0.8 -1 -1 -1.9 q -0.3 -0.9 -0.3 -2.1 q 0 -1.2 0.1 -2.2 q 0.1 -1 0.4 -2.3 q 0.2 -1.4 0.2 -2.4 q 0 -0.4 0.1 -0.8 q 0 -0.4 0.1 -0.7 q 0 -0.3 0.1 -0.8 q 0.1 -0.5 0.1 -0.7 q 0 -0.3 0.2 -0.8 q 0.1 -0.5 0.2 -0.7 q 0 -0.2 0.2 -0.8 q 0.2 -0.6 0.2 -0.7 q 0 -0.1 0.2 -0.8 q 0.2 -0.6 0.2 -0.7 q 0.3 -1.1 0.6 -1.6 q 0.3 -0.5 0.7 -1 q 0.5 -0.5 0.8 -0.8 q 0.4 -0.3 1 -0.8 q 0.2 -0.2 0.8 -0.6 q 0.6 -0.5 0.8 -0.7 q 0.3 -0.2 0.7 -0.5 q 0.5 -0.3 0.9 -0.6 q 0.4 -0.2 0.9 -0.5 q 1.1 -0.6 1.7 -0.4 q 0.5 0.1 0.8 0.5 q 0.3 0.4 0.4 0.9 q 0.1 0.4 0.1 0.7 q 0 0.4 0 0.8 q 0 0.4 0 0.7 q 0 0.3 -0.1 0.8 q -0.1 0.5 -0.2 0.7 q 0 0.2 -0.2 0.8 q -0.2 0.5 -0.2 0.7 q 0 0.1 -0.3 0.7 q -0.2 0.6 -0.2 0.7 q -0.7 2 -1.2 2.6 q -0.3 0.4 -1.7 3.1 q -1.4 2.7 -2 3.2 q -0.8 0.7 -1.8 1.9 z M 91.4 61.2 q -0.3 0.3 -0.7 2 q -0.4 1.7 -0.2 2 q 0.1 0.1 0.5 -0.2 q 0.3 -0.4 0.8 -1.1 q 0.5 -0.8 1 -1.9 q 1 -1.9 1 -2.1 q 0 -0.1 0.9 -2 q 0.9 -1.9 0.9 -2.3 q 0 -0.9 -0.8 -0.2 q -0.5 0.4 -1 1.2 q -0.7 1.3 -1.4 2.2 q -0.6 0.8 -0.6 1.4 q 0 0.6 -0.4 1.1 z"
          id="text13"
          style="stroke-width: 3; stroke-linecap: round; stroke-linejoin: round;"
          transform="matrix(7.1,0,0,7.1,-741.3,674)" aria-label="l" opacity="0">
      <animate attributeName="opacity" from="0" to="1" begin="3.3s" dur="0.2s" fill="freeze" />
    </path>
    <path d="M 114.1 72.6 q 0.4 0.2 0.4 1 q 0 0.9 -1 1.7 q -0.4 0.3 -0.9 0.5 q -0.1 0 -0.2 0.1 q -0.4 0.2 -0.7 0.3 q -0.9 0.1 -1.7 -0.7 q -0.2 -0.2 -0.4 -0.6 l -0.1 -0.1 q -0.3 -0.4 -0.5 -0.6 q -0.2 -0.1 -0.6 0.1 q -0.4 0.2 -1 1.4 q -0.3 0.6 -0.4 0.9 q -0.6 0.8 -1 0.9 q -0.5 0.3 -1.4 0.8 q -1.1 0.7 -2.1 0.7 q -1.1 0.1 -1.7 0.2 q -0.1 0 -0.3 0 q -0.3 0 -0.6 -0.1 q -0.4 -0.1 -1 -0.8 q -0.7 -0.7 -1 -1.2 q -0.3 -0.5 -0.5 -1.8 q -0.4 -2.1 -0.2 -3.4 q 0.2 -1.3 1.3 -3 q 1.3 -2.2 2.6 -3.1 q 1.2 -1 3 -1.4 q 0.9 -0.2 1.5 -0.6 q 1 -0.7 1.8 -0.5 q 0.8 0.1 1.8 1.2 q 0.5 0.6 0.8 0.9 q 0.2 0.4 0.3 0.7 q 0.1 0.3 0.1 0.9 q 0 2.6 0.2 4 q 0.1 0.9 0.4 1.3 q 0.3 0.5 1.1 1.1 l 0.1 -0.1 q 0.5 -0.4 0.8 -0.6 q 0.9 -0.7 1.4 -0.4 z m -6.8 -5 q 0 -1.1 -0.2 -1.3 q -0.1 0.1 -0.1 0.1 q -0.1 0.3 0 1.2 q 0.1 0.7 0.2 0.9 q 0.1 -0.2 0.1 -0.9 z m -0.9 4.5 q 0.1 -0.7 0 -1 q -0.1 -0.3 -0.7 -0.9 q -1 -0.9 -1 -1.6 q 0 -0.4 -0.3 -1 q -0.3 -0.6 -0.5 -0.7 q -0.2 -0.1 -0.4 -0.1 q -0.1 0 -0.2 0.1 q -0.3 0.1 -1.2 1.1 q -0.8 0.8 -1.5 2 q -0.7 1.2 -1 2.3 q -0.3 1 -0.1 1.5 q 0.2 0.4 0.3 1.5 q 0.1 0.8 0.2 1.2 q 0.1 0.3 0.4 0.4 q 0.3 0.1 1.1 0.1 q 0.4 0 0.6 0 q 0.2 0 0.4 -0.1 q 0.2 -0.1 0.4 -0.1 q 0.2 -0.1 0.4 -0.3 q 0.2 -0.1 0.5 -0.4 q 1.1 -0.9 1.3 -1.4 q 0.2 -0.6 0.7 -1.2 q 0.5 -0.5 0.6 -1.5 z"
          id="text12"
          style="stroke-width: 3; stroke-linecap: round; stroke-linejoin: round;"
          transform="matrix(7.1,0,0,7.1,-741.3,674)" aria-label="o" opacity="0">
      <animate attributeName="opacity" from="0" to="1" begin="3.5s" dur="0.2s" fill="freeze" />
    </path>
    <path d="M 132.2 73 q -1.1 -0.2 -1.8 -0.5 q -0.3 -0.1 -1.2 -0.9 q -0.9 -0.7 -1.3 -0.8 q -0.5 0 -0.9 0.1 q -0.4 0.2 -0.7 0.5 q -0.3 0.3 -0.6 0.7 q -0.3 0.4 -0.5 0.9 q -0.2 0.4 -0.5 0.9 q -0.2 0.5 -0.5 0.8 q -0.3 0.4 -1.3 1.1 q -1 0.7 -2 1.3 q -1 0.6 -1 0.7 q -0.4 0.3 -1.5 0.4 q -1.1 0.1 -2.3 -0.1 q -1.1 -0.2 -1.5 -0.8 q -0.1 -0.2 -0.2 -0.8 q -0.1 -0.6 -0.1 -1.1 q 0 -0.5 -0.1 -1.2 q -0.1 -0.7 -0.1 -0.9 q -0.2 -1.4 0.3 -2.3 q 0.1 -0.2 0.4 -1.8 q 0.2 -1.5 0.6 -3.4 q 0.4 -1.8 0.9 -2.8 q 1.2 -2 3.1 0.2 q 0.5 0.5 0.4 1.9 q -0.1 1.4 -0.7 2.7 q -0.4 0.8 -0.9 2.5 q -0.6 1.6 -0.7 2.1 q -0.6 1.6 0.1 2.5 q 0.1 0.2 0.6 0.1 q 0.4 -0.1 0.9 -0.3 q 0.5 -0.2 0.9 -0.5 q 0.4 -0.3 0.6 -0.5 q 0.6 -0.7 1.7 -2.8 q 1.1 -2.2 1.3 -3.1 q 0.2 -1 1 -1.9 q 0.7 -0.9 1.6 -1.4 q 0.9 -0.5 1.8 -0.4 q 0.9 0.2 1.5 1.2 q 0.3 0.5 0.5 1.8 q 0.2 1.3 0.8 2 q 0.6 0.6 1.2 0.9 q 0.6 0.3 1.6 0.4 q 0.9 0.1 1.5 0.3 q 0.6 0.2 1 0.8 q 0.4 0.6 0 1.1 q -0.4 0.7 -1.9 0.5 q -1.2 -0.1 -1.8 -0.2 z"
          id="text11"
          style="stroke-width: 3; stroke-linecap: round; stroke-linejoin: round;"
          transform="matrix(7.1,0,0,7.1,-741.3,674)" aria-label="v" opacity="0">
      <animate attributeName="opacity" from="0" to="1" begin="3.7s" dur="0.2s" fill="freeze" />
    </path>
    <path d="M 147.4 74.9 q 0.6 -0.5 1.1 -0.4 q 0.5 0.1 0.5 0.9 q 0 0.3 -0.1 0.5 q -0.1 0.3 -0.3 0.5 q -0.1 0.2 -0.4 0.4 q -0.3 0.2 -0.5 0.4 q -0.2 0.1 -0.5 0.3 q -0.3 0.2 -0.4 0.3 q -0.7 0.5 -1.4 0.8 q -0.1 0 -0.2 0.1 q -0.1 0 -0.2 0.1 q -0.1 0 -0.2 0.1 q -0.1 0 -0.2 0.1 l -0.1 0 q -1.8 0.7 -3.8 0.9 q -2.1 0.1 -3.1 -0.4 q -0.1 -0.1 -0.9 -0.4 q -0.8 -0.4 -1.2 -0.6 q -0.7 -0.4 -1.3 -1.9 q -1.1 -2.6 -1.1 -4.7 q 0 -1.2 0.4 -3.2 q 0 -0.1 0.1 -0.5 q 0.1 -0.4 0.1 -0.6 q 0.1 -0.2 0.1 -0.5 q 0.1 -0.3 0.2 -0.6 q 0.1 -0.2 0.2 -0.5 q 0.1 -0.2 0.2 -0.5 q 0.6 -0.9 1 -1.2 q 1.6 -1.6 4 -1.5 q 2.5 0.2 2.7 1.7 q 0.2 1.1 -0.1 2.4 q -0.3 1.2 -0.8 2 q -0.5 0.8 -1.3 2.1 q -0.8 1.3 -1.2 1.9 q -1.3 2.4 -1.3 2.9 q 0 0.4 0.7 1.1 q 0.5 0.4 0.8 0.5 q 0.4 0.1 1.3 -0.1 q 1.5 -0.2 3.3 -0.7 q 0.7 -0.2 2 -0.8 q 1.3 -0.6 1.6 -0.8 z m -11.4 -2.1 q 0.3 0 1.5 -2.3 q 1.2 -2.3 1.2 -2.8 q 0 -0.6 -0.6 -0.7 q -0.6 -0.2 -1 0.3 q -0.3 0.4 -0.6 1.1 q -0.3 0.7 -0.5 1.4 q -0.1 0.7 -0.3 1.4 q -0.1 0.7 -0.1 1.1 q 0.1 0.5 0.3 0.5 z"
          id="text10"
          style="stroke-width: 3; stroke-linecap: round; stroke-linejoin: round;"
          transform="matrix(7.1,0,0,7.1,-741.3,674)" aria-label="e" opacity="0">
      <animate attributeName="opacity" from="0" to="1" begin="3.9s" dur="0.2s" fill="freeze" />
    </path>
  </g>
  <g id="group-you">
    <path d="M 177.3 73.7 q 0.6 -0.6 1.1 -0.5 q 0.5 0.1 0.5 0.9 q 0 0.3 -0.1 0.5 q -0.1 0.3 -0.3 0.5 q -0.1 0.2 -0.4 0.4 q -0.3 0.2 -0.5 0.4 q -0.2 0.1 -0.5 0.3 q -0.3 0.2 -0.4 0.3 q 0 0 0 0 q -0.2 0.3 -0.8 0.7 q -0.7 0.4 -1.3 0.5 q -0.6 0.3 -1.1 0.6 q -0.1 0.6 -2.4 2.4 q -0.9 0.7 -1.5 1.3 q -0.6 0.5 -1.5 1.4 q -0.9 0.9 -1.3 1.8 q -0.5 0.9 -0.5 1.7 q 0 0.4 -1 0.8 q -0.6 0.4 -1 0.4 q -0.3 0 -1 -0.3 q -0.9 -0.4 -1.2 -1.3 q -0.1 -0.9 0 -1.4 q 0.1 -0.6 0.7 -1.2 q 0.5 -0.6 1 -1 q 0.5 -0.4 1.1 -1 q 0.6 -0.6 0.8 -1.1 q 0.5 -1 0.8 -1.3 q 0.4 -0.4 0.3 -1.1 q -0.1 -0.7 -0.6 -1 q -0.6 -0.3 -1.7 0.2 q -1.9 0.8 -3.2 -0.2 q -1.3 -1 -1.6 -3.4 q -0.1 -1.2 0.3 -3.2 q 0.5 -2 0.4 -3 q 0 -1.2 0.4 -2.5 q 0.4 -1.3 1.3 -1.9 q 0.9 -0.6 2 -0.1 q 1 0.5 1.1 1.7 q 0 0.6 -0.3 1.7 q -0.3 0.9 -1 2.9 q -0.7 2 -1 3.1 q -0.3 1 -0.2 1.6 q 0 0.6 0.3 0.6 q 1.1 0 3.2 -2.4 q 2.1 -2.4 2.5 -4.2 q 0.2 -0.9 0.5 -1.2 q 0.3 -0.4 0.7 -1.8 q 0.5 -1.5 1.7 -2.8 q 0.7 -0.8 1.2 -1 q 0.4 -0.3 1.1 -0.3 q 1.1 0 1.3 0.4 q 0.1 0.3 0 1 q -0.1 0.7 -0.3 1.3 q -0.2 0.6 -0.5 1.3 q -0.2 0.7 -0.3 1 q -0.1 0.5 -0.2 0.7 q -0.1 0.2 -0.4 0.7 q -0.6 0.9 -1 2.2 q -0.4 1.3 -0.8 2.9 q -0.4 1.6 -0.6 2.4 q -0.5 1.5 -0.4 1.6 q 0.1 0.1 1.6 -0.6 q 1.6 -0.7 3.1 -1.5 q 1.6 -0.8 1.8 -1 z"
          id="text9"
          style="stroke-width: 3; stroke-linecap: round; stroke-linejoin: round;"
          transform="matrix(7.1,0,0,7.1,-741.3,674)" aria-label="y" opacity="0">
      <animate attributeName="opacity" from="0" to="1" begin="4.2s" dur="0.2s" fill="freeze" />
    </path>

    <path d="M 193.3 72.6 q 0.4 0.2 0.4 1 q 0 0.9 -1 1.7 q -0.4 0.3 -0.9 0.5 q -0.1 0 -0.2 0.1 q -0.4 0.2 -0.7 0.3 q -0.9 0.1 -1.7 -0.7 q -0.2 -0.2 -0.4 -0.6 l -0.1 -0.1 q -0.3 -0.4 -0.5 -0.6 q -0.2 -0.1 -0.6 0.1 q -0.4 0.2 -1 1.4 q -0.3 0.6 -0.4 0.9 q -0.6 0.8 -1 0.9 q -0.5 0.3 -1.4 0.8 q -1.1 0.7 -2.1 0.7 q -1.1 0.1 -1.7 0.2 q -0.1 0 -0.3 0 q -0.3 0 -0.6 -0.1 q -0.4 -0.1 -1 -0.8 q -0.7 -0.7 -1 -1.2 q -0.3 -0.5 -0.5 -1.8 q -0.4 -2.1 -0.2 -3.4 q 0.2 -1.3 1.3 -3 q 1.3 -2.2 2.6 -3.1 q 1.2 -1 3 -1.4 q 0.9 -0.2 1.5 -0.6 q 1 -0.7 1.8 -0.5 q 0.8 0.1 1.8 1.2 q 0.5 0.6 0.8 0.9 q 0.2 0.4 0.3 0.7 q 0.1 0.3 0.1 0.9 q 0 2.6 0.2 4 q 0.1 0.9 0.4 1.3 q 0.3 0.5 1.1 1.1 l 0.1 -0.1 q 0.5 -0.4 0.8 -0.6 q 0.9 -0.7 1.4 -0.4 z m -6.8 -5 q 0 -1.1 -0.2 -1.3 q -0.1 0.1 -0.1 0.1 q -0.1 0.3 0 1.2 q 0.1 0.7 0.2 0.9 q 0.1 -0.2 0.1 -0.9 z m -0.9 4.5 q 0.1 -0.7 0 -1 q -0.1 -0.3 -0.7 -0.9 q -1 -0.9 -1 -1.6 q 0 -0.4 -0.3 -1 q -0.3 -0.6 -0.5 -0.7 q -0.2 -0.1 -0.4 -0.1 q -0.1 0 -0.2 0.1 q -0.3 0.1 -1.2 1.1 q -0.8 0.8 -1.5 2 q -0.7 1.2 -1 2.3 q -0.3 1 -0.1 1.5 q 0.2 0.4 0.3 1.5 q 0.1 0.8 0.2 1.2 q 0.1 0.3 0.4 0.4 q 0.3 0.1 1.1 0.1 q 0.4 0 0.6 0 q 0.2 0 0.4 -0.1 q 0.2 -0.1 0.4 -0.1 q 0.2 -0.1 0.4 -0.3 q 0.2 -0.1 0.5 -0.4 q 1.1 -0.9 1.3 -1.4 q 0.2 -0.6 0.7 -1.2 q 0.5 -0.5 0.6 -1.5 z"
          id="text8"
          style="stroke-width: 3; stroke-linecap: round; stroke-linejoin: round;"
          transform="matrix(7.1,0,0,7.1,-741.3,674)" aria-label="o" opacity="0">
      <animate attributeName="opacity" from="0" to="1" begin="4.4s" dur="0.2s" fill="freeze" />
    </path>
    <path d="M 212.1 74.3 q 0.6 -0.5 1.1 -0.4 q 0.5 0.1 0.5 0.9 q 0 0.3 -0.1 0.5 q -0.1 0.3 -0.3 0.4 q -0.1 0.2 -0.4 0.4 q -0.3 0.2 -0.5 0.4 q -0.2 0.1 -0.5 0.3 q -0.3 0.2 -0.4 0.3 q -2.1 1.4 -2.1 1.5 q -0.2 0.2 -0.9 0.4 q -0.7 0.2 -1.1 0.2 q -0.5 0.1 -0.9 0.1 q -0.4 0 -0.9 -0.1 q -0.5 -0.1 -0.7 -0.2 q -0.2 -0.1 -0.4 -0.1 q -0.8 -0.4 -2.2 -1.7 l -1.1 -1.1 l -1.5 1.1 q -1.5 1 -3.3 1.3 q -1.5 0.1 -2.8 -0.3 q -1.3 -0.5 -2.1 -1.6 q -0.8 -1.2 -0.5 -2.8 q 0.4 -1.7 1.7 -3.7 q 1.3 -2 2.8 -3.5 q 1.1 -1.1 1.8 -1.1 q 0.3 0 0.9 0.6 q 0.4 0.4 0.4 0.7 q 0 0.3 -0.5 1.1 q -3.6 7.1 -1.9 7.7 l 0.2 0 q 1.2 0.2 3.3 -2 q 2.1 -2.2 2.9 -4.4 q 0.6 -1.5 1.5 -2.7 q 0.8 -1.1 1.1 -1.2 q 0.4 -0.1 1.3 0.4 q 0.8 0.4 0.9 1 q 0 0.6 -0.6 1.8 q -0.3 0.5 -0.5 1.1 q -0.2 0.6 -0.3 1.1 q -0.1 0.1 -0.1 0.5 q -0.1 0.4 -0.2 0.7 q -0.2 0.7 -0.3 1.2 q -0.3 1.2 -0.3 2.3 q 0 1.1 0.4 1.5 q 0.3 0.3 1.3 0.4 q 0.1 -0.1 0.8 -0.3 q 0.6 -0.2 0.9 -0.3 q 2.3 -1.2 3.6 -2.2 z"
          id="text7"
          style="stroke-width: 3; stroke-linecap: round; stroke-linejoin: round;"
          transform="matrix(7.1,0,0,7.1,-741.3,674)" aria-label="u" opacity="0">
      <animate attributeName="opacity" from="0" to="1" begin="4.6s" dur="0.2s" fill="freeze" />
    </path>
    <path d="M 215.5 76.7 q -0.3 -0.2 -0.1 -1.3 q 0.2 -1.1 0.8 -1.5 q 0.5 -0.5 1.6 -0.4 q 1 0.1 1.9 0.5 q 0.9 0.5 1 0.8 q 0.1 0.3 -0.4 1.5 q -0.6 1.2 -1.1 1.6 q -0.6 0.4 -1.8 0.3 q -1.4 -0.1 -1.4 -0.7 q 0 -0.6 -0.4 -0.8 z"
          id="text-dot-1"
          style="stroke-width: 3; stroke-linecap: round; stroke-linejoin: round;"
          transform="matrix(7.1,0,0,7.1,-741.3,674)" aria-label="." opacity="0">
      <animate attributeName="opacity" from="0" to="1" begin="4.8s" dur="0.2s" fill="freeze" />
    </path>
    <path
      d="m 836.26406,1225.6762 c -2.15953,-2.7074 -4.48734,-5.1195 -4.92364,-7.1112 -1.32219,-6.0358 -1.19095,-9.2042 0,-11.9303 0.84542,-2.9739 2.06772,-4.8343 6.31129,-7.1349 4.24348,-2.3006 5.27478,-5.5422 9.88265,-6.0724 1.37036,0.4904 6.95966,-3.7871 12.99804,3.3746 2.125,2.5202 4.56254,3.971 5.7901,9.353 0.60381,5.3409 -1.73835,9.5484 -2.98694,12.3099 -1.24851,2.7615 -4.42659,5.5579 -9.53419,8.3895 -4.33135,1.538 -8.27689,1.6679 -11.11656,1.538 -3.47852,-0.1591 -3.9251,-0.4286 -6.42075,-2.7162 z"
      id="text-dot-2"
      style="stroke-width: 3; stroke-linecap: round; stroke-linejoin: round;"
      aria-label="." opacity="0">
      <animate attributeName="opacity" from="0" to="1" begin="4.9s" dur="0.2s" fill="freeze" />
    </path>
    <path
      d="m 893.46826,1227.1055 c -5.1098,-0.7546 -3.41891,0.7179 -8.30728,-1.3662 -4.88835,-2.0842 -7.83125,-4.5097 -8.8287,-7.2764 -1.43597,-2.7222 -1.33382,-6.3077 0.30645,-10.7565 1.64019,-4.4488 1.96855,-5.5218 5.12856,-8.9164 0,0 2.87576,-2.676 5.52462,-3.5959 3.21768,-1.2676 7.89802,-1.4863 13.55967,0 4.86255,3.5619 8.3232,6.6258 8.76097,9.5882 0.44451,3.008 0.40914,6.9763 -1.42855,12.3457 -2.16257,6.1614 -3.98574,6.7972 -7.4422,8.3783 -3.91393,1.7903 -5.61095,0.9495 -7.27354,1.5992 z"
      id="text-dot-3"
      style="stroke-width: 3; stroke-linecap: round; stroke-linejoin: round;"
      aria-label="." opacity="0">
      <animate attributeName="opacity" from="0" to="1" begin="5.0s" dur="0.2s" fill="freeze" />
    </path>
  </g>
  <path id="dialog-marker" style="stroke-width: 15; stroke-linecap: round; stroke-linejoin: round"
        d="M 297.3 1379.2
          c 102.7 78.6 150.4 30.9 261 14.2
          c 57.8 18.5 114.6 121 89.6 109.4
          v 0 c -6.5 -8.9 -39.4 -38 -46 -44.6
          c -66.3 -66 -112.6 -14.6 -202 -14.6
          c -31.3 0 -95.5 0.7 -131 -36.1
          l -48.7 -50.4
          c -14.2 -42.7 -28.3 -59.3 77 22.1
          z"
        opacity="0">
    <animate attributeName="opacity" from="0" to="1" begin="3s" dur="0.2s" fill="freeze" />
  </path>
  <path id="dialog-marker-girl" style="stroke-width: 15; stroke-linecap: round; stroke-linejoin: round;"
  d="m 61.859806,1349.0058
    c -129.963572,63.632 -96.972423,108.7733 -156.445049,227.8865 -38.031417,47.2496 -121.812187,88.4895 -101.993117,69.4014
    v 0
    c 10.6387,-2.8495 55.61025,-60.4394 58.14025,-69.4014 12.69877,-44.9827 37.99783,-73.2253 70.334344,-164.2545 11.270396,-29.2263 49.613643,-65.7834 96.755523,-85.7038
    l 64.555015,-27.2785
    c 44.914488,2.143 42.477788,-14.1593 -31.346966,49.3503
    z"
    opacity="0">
    <animate attributeName="opacity" from="0" to="1" begin="3s" dur="0.2s" fill="freeze" />
  </path>
  <path id="couple-path" style="stroke: none; stroke-linecap: round; display: inline"
      d="M 899 1457.8 v 1 l -4 0.2 c -34.4 1.8 -65.9 4.7 -94.7 25.2 c -4.5 3.1 -9.2 5.9 -13.9 8.7 c -1.8 1.1 -3.5 2.1 -5.3 3.2 c -0.9 0.6 -1.9 1.1 -2.9 1.7 c -2.5 1.6 -4.8 3.2 -7.2 4.9 c -11 7.7 -19.7 9.7 -33.1 9.2 c -2.8 -0.1 -5.6 -0.1 -8.5 -0.2 c -9.8 -0.1 -18.4 -0.8 -27.5 -4.9 c 0.3 0.9 0.6 1.7 0.8 2.6 c 3.6 11.4 3.6 11.4 4.2 17.4 c 0.9 0.3 1.7 0.5 2.6 0.8 c 3.4 1.2 6.5 2.7 9.8 4.3 c 1.1 0.5 2.1 1.1 3.2 1.6 c 0.8 0.4 1.6 0.8 2.4 1.2 v 1 c -9.9 0.7 -17.2 -1 -26.3 -5 c -1.7 -0.7 -1.7 -0.7 -3.4 -1.4 c -2.8 -1.2 -5.5 -2.3 -8.3 -3.6 c 0 5.4 0.1 9.7 3.9 13.8 c 1.2 1.1 2.4 2.2 3.6 3.3 c 2.2 2 4.3 4 6.4 6 v 2 l -36 9 c 0 4.6 2.8 7 5.6 10.5 c 1.4 2.5 1.4 2.5 1.2 4.4 c -1 2.5 -2.2 3.3 -4.3 5 c -3.4 3.2 -4.1 5.6 -4.4 10.2 c 0 2.3 -0.1 4.5 0 6.8 c 0 1.2 0 2.3 0 3.5 c 0 2.8 0 5.7 0 8.5 h 15 v 4.8 c 0.4 5.2 1.8 7.7 5 11.7 c 5.8 8.3 4.7 16.2 4.2 25.9 c -0.2 12.3 2.2 13.9 9.8 25.7 l 5 -33 l 4 3 c 3.2 -0.2 5 -1.6 7.3 -3.7 c 0.6 -0.5 1.2 -1.1 1.9 -1.6 c 0.6 -0.6 1.3 -1.2 1.9 -1.8 c 1.3 -1.2 2.7 -2.4 4 -3.5 c 1 -0.9 1 -0.9 2 -1.8 c 11 -9.6 11 -9.6 12.9 -9.6 c 0 0.6 0 1.2 0 1.8 c 0 6.1 0 12.2 0.1 18.3 c 0 2.3 0 4.5 0 6.8 c 0 18.4 2.1 32.2 12.6 47.6 c 0.5 0.8 1 1.6 1.5 2.4 c 2.5 3.8 5.1 7.6 7.7 11.3 c 0.7 1 0.7 1 1.4 2.1 c 0.9 1.2 1.8 2.5 2.7 3.7 c 4.4 6.5 2.8 13.7 1.9 21 c -0.1 1.1 -0.1 1.1 -0.3 2.2 c -0.6 4.6 -1.2 9.1 -1.8 13.7 c -0.3 2.3 -0.7 4.7 -1 7 c -0.9 6.6 -1.9 13.2 -3.1 19.8 c -1.2 6.2 -1.2 6.2 -0.8 12.3 c 2.2 2.4 4.8 3.9 7.6 5.6 c 1.6 1 3.1 2.1 4.7 3.1 c 0.8 0.5 1.6 1.1 2.4 1.6 c 4.2 3 8 6.4 11.9 9.8 c 0.6 0.5 1.1 1 1.7 1.5 c 0.6 0.5 1.2 1.1 1.8 1.6 c 2 1.8 2 1.8 4.6 3.4 c 6.6 4.6 9.8 9 13 16.3 c 0.4 0.8 0.7 1.6 1.1 2.5 c 1.5 3.4 3 6.9 4.4 10.4 c 3.7 10 3.7 10 11.1 17.4 c 4 1.5 7.9 2.4 12.1 3 c 1.2 0.2 2.4 0.5 3.7 0.7 c 1 3 1 3 0.2 4.7 c -1.4 2.1 -2.8 4.2 -4.2 6.3 c -0.5 0.7 -0.9 1.4 -1.4 2.1 c -14.3 20.2 -38.7 26 -60.9 33.9 c -6.8 2.4 -13.5 5 -20.2 7.6 c -1 0.4 -2.1 0.8 -3.1 1.2 c -12.5 4.9 -24.8 10.3 -37.1 15.6 c -0.8 0.4 -1.7 0.7 -2.5 1.1 c -1.6 0.7 -3.2 1.4 -4.7 2.1 c -3 1.3 -5.6 2.4 -8.8 2.8 c -0.7 0.2 -1.4 0.4 -2.1 0.6 c -0.7 1.7 -1.3 3.3 -2 5 c -1.1 1.7 -2.3 3.4 -3.6 5 c -11.1 15.1 -17.8 29.6 -23.5 47.6 c -0.8 2.6 -1.7 5.2 -2.6 7.8 c -2 6.1 -4 12.2 -5.9 18.4 c -2.2 6.8 -4.4 13.6 -6.6 20.3 c -5.3 16.3 -10.6 32.6 -15.8 48.9 c -0.8 2.3 -1.5 4.7 -2.3 7 c -2.8 8.6 -5.5 17.2 -8.2 25.8 c -3.9 12.2 -7.8 24.5 -11.8 36.7 c -0.2 0.7 -0.5 1.5 -0.7 2.3 c -2.1 6.6 -4.3 13.1 -6.4 19.7 c -2.6 7.9 -5.1 15.8 -7.7 23.7 c -1.4 4.4 -2.8 8.7 -4.3 13.1 c -4.1 12.7 -7 24.7 -8.1 38 c -0.2 1.6 -0.3 3.1 -0.5 4.7 c -0.4 4 -0.8 8.1 -1 12.1 c -0.1 1.8 -0.1 1.8 -0.3 3.7 c 0 3.3 0 3.3 2 5.6 c 2.5 1.8 4.8 2.9 7.7 3.9 c 1 0.4 2 0.8 3.1 1.1 c 2.1 0.8 4.3 1.5 6.5 2.3 c 1 0.4 2 0.8 3.1 1.1 c 0.9 0.3 1.9 0.7 2.8 1 c 2.2 1.2 2.2 1.2 2.8 3 c 0.4 2.5 0.2 4.4 -0.3 7 c -0.2 0.9 -0.3 1.9 -0.5 2.8 c -0.2 1 -0.4 2 -0.5 3 c -0.3 1.6 -0.3 1.6 -0.5 3.2 c -0.6 3.3 -1.1 6.7 -1.7 10 c -0.6 3.3 -1.1 6.6 -1.7 9.9 c -0.4 2.1 -0.7 4.1 -1.1 6.2 c -0.7 4.2 -1.4 8.3 -1.8 12.5 c -0.5 3.6 -1.4 6 -3 9.3 c -2.8 5.8 -5.3 11.7 -7.8 17.7 c -0.8 1.9 -1.5 3.8 -2.3 5.7 c -0.4 1 -0.8 2 -1.2 3 c -7.3 17.9 -15 35.4 -23.6 52.7 c -2.7 5.6 -5.3 11.2 -7.9 16.9 c -5.8 12.5 -11.8 24.9 -17.9 37.3 c -0.7 1.4 -1.4 2.8 -2.1 4.2 c -0.3 0.6 -0.6 1.2 -0.9 1.9 c -1 2 -1.9 4 -2.8 6 c -0.4 0.8 -0.8 1.7 -1.2 2.5 c -3.5 8 -5.9 16.1 -8.1 24.6 c -0.7 2.6 -1.4 5.1 -2.1 7.7 c -1 3.7 -2 7.5 -3.1 11.2 c -37.1 136.5 -37.1 136.5 -62.9 199.5 c -4.2 10.2 -8.1 20.6 -12.1 30.9 c -1.3 3.3 -2.6 6.7 -3.8 10 c -2.2 5.8 -4.5 11.7 -6.7 17.5 c -0.3 0.7 -0.6 1.5 -0.9 2.3 c -6 15.6 -11.5 31.4 -16.6 47.3 c -0.2 0.7 -0.5 1.4 -0.7 2.1 c -0.6 1.9 -1.2 3.8 -1.8 5.6 c -1 2.7 -1 2.7 -2 3.7 c -1.5 0.1 -3 0.1 -4.6 0.1 c -0.8 0 -1.7 0 -2.5 0 c -0.6 0 -1.3 0 -1.9 0 c 0.1 -0.9 0.1 -0.9 0.2 -1.7 c 0.1 -8.8 -5.1 -13.6 -10.7 -19.7 c -2.2 -2.4 -4.2 -4.8 -6.2 -7.3 c -0.7 -0.8 -1.3 -1.6 -2 -2.4 c -6 -7.7 -11.1 -15.8 -16.1 -24.2 c -1.8 -3.1 -3.7 -6.2 -5.6 -9.2 c -0.4 -0.6 -0.8 -1.3 -1.1 -1.9 c -3.9 -6.4 -7.8 -12.8 -11.7 -19.1 c -6.2 -10.1 -12.3 -20.1 -18.4 -30.3 c -1.2 -2 -2.4 -4 -3.6 -6 c -6.9 -11.4 -12.9 -23.2 -18.9 -35.1 c -4.7 -9.1 -9.4 -18.2 -14.4 -27.2 c -3.3 -6 -6.5 -12.1 -9.6 -18.2 c -5.5 -10.9 -11.3 -21.3 -18.2 -31.4 c -3.3 -4.9 -6.4 -9.9 -9.6 -14.8 c -4.7 -7.3 -9.4 -14.7 -14.1 -22 c -0.4 -0.6 -0.8 -1.3 -1.3 -1.9 c -0.4 -0.6 -0.8 -1.2 -1.2 -1.8 c -0.4 -0.6 -0.7 -1.1 -1.1 -1.7 c -0.9 -1.4 -1.8 -2.7 -2.8 -4 c -3.7 -5.3 -6.1 -10.3 -8.1 -16.4 c -0.3 -0.9 -0.6 -1.8 -0.9 -2.7 c -1 -2.8 -1.9 -5.6 -2.8 -8.4 c -0.9 -2.7 -1.9 -5.5 -2.8 -8.2 c -0.6 -1.9 -1.3 -3.7 -1.9 -5.6 c -1.6 -4.8 -3.3 -9.5 -5.1 -14.2 c -7.3 -18.9 -11.8 -38.3 -16.4 -58 c -0.9 -3.7 -1.7 -7.4 -2.6 -11.1 c -0.9 -3.6 -1.7 -7.2 -2.5 -10.7 c -0.4 -1.7 -0.8 -3.4 -1.2 -5.1 c -0.6 -2.4 -1.1 -4.7 -1.7 -7.1 c -0.2 -0.7 -0.3 -1.4 -0.5 -2.1 c -0.9 -3.8 -1.2 -6.7 0 -10.4 c 1.6 -1.8 1.6 -1.8 3.6 -3.4 c 0.7 -0.6 1.5 -1.2 2.2 -1.8 c 0.8 -0.6 1.6 -1.2 2.4 -1.8 c 0.8 -0.6 1.5 -1.2 2.3 -1.9 c 2.1 -1.7 4.3 -3.4 6.4 -5.1 c 1.7 -1.3 3.3 -2.7 5 -4 c -2.2 -9.3 -4.7 -18.6 -7.4 -27.8 c -0.5 -1.7 -0.5 -1.7 -1 -3.5 c -5.7 -19.1 -11.7 -38.1 -17.7 -57.2 c -1.4 -4.5 -2.8 -9 -4.2 -13.5 c -0.4 -1.3 -0.4 -1.3 -0.9 -2.7 c -3.5 -11.2 -7 -22.5 -10.4 -33.8 c -9 -30.2 -19.1 -59.8 -30.6 -89.2 c -0.9 -2.4 -1.9 -4.9 -2.8 -7.3 c -1.5 -3.8 -3 -7.6 -4.5 -11.4 c -0.6 -1.4 -1.1 -2.8 -1.6 -4.2 c -3.6 -9.2 -7.8 -15.4 -15.8 -21.4 c -1 -0.9 -2.1 -1.8 -3.1 -2.6 c -1.3 -1 -1.3 -1 -2.6 -2.1 c -5.1 -4.1 -5.1 -4.1 -6.8 -5.8 c -4.7 -4.5 -8.4 -5.6 -14.7 -6.2 c -1.4 -0.2 -1.4 -0.2 -2.8 -0.3 c -3 -0.4 -6 -0.7 -9 -1 l -3.1 -0.3 c -4.4 -0.4 -8.9 -0.9 -13.3 -1.3 c -24.8 -2.4 -49.3 -5.8 -73.6 -11.3 c -2.7 -0.6 -5.4 -1.2 -8.2 -1.7 c -22.2 -4.5 -22.2 -4.5 -27.5 -11.7 c -2.9 -5.1 -5.4 -10.4 -5.1 -16.3 c 1.1 -3 2.4 -5.7 3.8 -8.5 c 0.6 -1.2 1.2 -2.3 1.8 -3.5 c 0.6 -1.2 1.2 -2.4 1.9 -3.6 c 0.6 -1.2 1.2 -2.5 1.9 -3.7 c 1.5 -3 3 -6 4.6 -9 c 1.3 0.1 2.6 0.2 4 0.4 c 4.9 0.5 9.8 0.9 14.7 1.3 c 2.1 0.2 4.2 0.4 6.3 0.6 c 3 0.3 6.1 0.6 9.1 0.8 l 2.8 0.3 c 8.4 0.7 16.9 1.3 25.2 -0.3 c 1 -0.2 2 -0.4 3 -0.5 c 1.5 -0.3 1.5 -0.3 3 -0.6 c 1.6 -0.3 1.6 -0.3 3.2 -0.6 c 2.5 -0.5 5.1 -0.9 7.6 -1.4 c 0.1 -0.6 0.1 -1.2 0.2 -1.9 c 0.5 -6 1.4 -11.8 2.7 -17.7 c 0.2 -0.9 0.4 -1.7 0.5 -2.6 c 0.6 -2.7 1.1 -5.4 1.7 -8 c 0.4 -1.8 0.8 -3.7 1.1 -5.5 c 0.9 -4.5 1.9 -8.9 2.8 -13.4 h 10 c 0.1 -1.3 0.2 -2.5 0.4 -3.8 c 2.9 -30.1 2.9 -30.1 4.6 -35.2 c 2.3 -0.6 4.5 -1.2 6.8 -1.7 c 3.3 -0.9 6.3 -2 8.3 -5 c 2.4 -6 3.8 -13 1.9 -19.3 c -1.6 -1.8 -1.6 -1.8 -3.6 -3.4 c -5 -4.8 -8 -10.4 -11 -16.6 c -0.9 -1.9 -1.9 -3.7 -2.9 -5.5 c -3.7 -7.3 -5.4 -12.4 -3.5 -20.4 c 2.8 -12.3 3.7 -23.9 3.8 -36.4 c 0 -1 0 -2 0 -3 c 0 -23.7 -0.3 -63 -16.8 -81.7 c -1 -1.1 -2 -2.3 -3 -3.4 c -0.5 -0.6 -1 -1.1 -1.5 -1.7 c -2.9 -3.4 -5.7 -6.9 -8.5 -10.4 c -20.5 -24.3 -61.8 -33.5 -91.5 -40.8 c -2.5 -0.6 -5.1 -1.3 -7.6 -1.9 c -4.1 -1 -8.1 -2 -12.2 -2.9 c -1.5 -0.4 -3 -0.7 -4.5 -1.1 c -10.1 -2.4 -18.9 -2.9 -29.2 -1.7 c -2.3 0.2 -4.7 0.4 -7 0.6 c -2.3 0.2 -4.5 0.5 -6.8 0.7 c -1.1 0.1 -2.3 0.2 -3.4 0.3 c -1.1 0.1 -2.2 0.2 -3.4 0.4 c -1 0.1 -2 0.2 -3 0.3 c -11.1 2.3 -21.5 8.5 -31.6 13.5 c -1.9 0.9 -3.8 1.9 -5.7 2.8 c -15.1 7.1 -15.1 7.1 -27.1 18.4 c -1.1 1.3 -2.2 2.5 -3.3 3.8 c -0.6 0.6 -1.1 1.3 -1.7 2 c -2.6 2.9 -5.2 5.8 -7.9 8.7 c -4.3 4.6 -8.5 9.3 -12.7 14 c -1.6 1.8 -3.3 3.5 -4.9 5.2 c -7.7 7.8 -12.4 16 -17.2 25.8 c -0.8 1.6 -1.6 3.2 -2.4 4.7 c -2.1 4.2 -4.1 8.3 -6.2 12.5 c -1.3 2.6 -2.5 5.2 -3.8 7.8 c -13.8 27.9 -27 55.9 -38.6 84.8 c -15.3 38.2 -15.3 38.2 -29.5 50.8 c -7.4 6.7 -10.7 11.4 -11.5 21.4 c -0.1 1.7 -0.2 3.3 -0.2 5 c -0.8 21.3 -0.8 21.3 -7.3 27.9 c -1.6 1.3 -3.2 2.5 -4.8 3.7 c -1.3 1.1 -2.5 2.2 -3.8 3.3 c -0.6 0.6 -1.3 1.1 -2 1.7 c -2.9 2.6 -5.8 5.2 -8.7 7.9 c -4.7 4.3 -9.3 8.6 -14.1 12.8 c -3.1 2.8 -6.1 5.5 -9.1 8.3 c -0.8 0.7 -0.8 0.7 -1.6 1.5 c -4.5 4.1 -5.1 5.8 -5.8 11.8 c -0.1 0.7 -0.2 1.5 -0.3 2.2 c -0.2 1.6 -0.4 3.1 -0.5 4.7 c -0.3 2.4 -0.6 4.7 -0.8 7.1 c -0.2 1.5 -0.4 3 -0.5 4.6 c -0.1 0.7 -0.2 1.4 -0.3 2.1 c -0.5 4.7 -0.7 9.3 -0.6 14.1 c 0.7 -1 1.4 -2 2.1 -3 c 8.6 -11.9 18.5 -22 29.1 -32.2 c 1.8 -1.7 1.8 -1.7 2.7 -3.8 l 2 1 l -1.1 1.7 c -7.8 12.5 -12 23.8 -12 38.5 v 2.1 c 0 4.3 0.1 8.6 0.3 12.8 c 0.2 5.8 0.3 11.5 0.4 17.3 c 0 2 0.1 4 0.2 5.9 c 0.2 9.8 -2.9 15 -8.8 22.7 c -3.1 5.3 -5.2 10.4 -6.8 16.3 c -5 17.1 -5 17.1 -12.5 21.9 c -6.4 3.1 -13.2 4.8 -20.1 6.6 c -7.8 2 -13.3 5.4 -19.6 10.3 c 2.6 1.7 4.8 2.8 7.7 3.9 c 1.3 0.5 1.3 0.5 2.7 1.1 c 0.9 0.4 1.9 0.7 2.8 1.1 c 0.9 0.4 1.9 0.7 2.8 1.1 c 2.3 0.9 4.6 1.8 7 2.7 c -3.2 3.9 -6.4 7.5 -10.2 10.8 c -8.8 7.9 -14.8 13.8 -15.6 25.9 c 0 0.7 -0.1 1.4 -0.1 2.1 c -0.2 3.2 -0.6 6.3 -1 9.4 c -0.4 3.2 -0.8 6.5 -1.1 9.8 l 12 -8 c 1.2 3.6 0.7 4.4 -0.5 7.9 c -1.6 5.9 -1.6 11.1 -1.4 17.1 c 1.1 33.1 1.1 33.1 -7.6 42.5 c -3.6 3.2 -7.3 6.1 -11.5 8.6 c 8.4 -0.5 16.6 -1.3 24.9 -2.6 c 2.7 -0.4 5.3 -0.5 8.1 -0.4 l 4 9 c -5.8 2 -11.6 4 -17.4 6 c -2 0.7 -3.9 1.4 -5.9 2 c -2.8 1 -5.7 1.9 -8.5 2.9 c -0.9 0.3 -1.8 0.6 -2.7 0.9 c -0.8 0.3 -1.6 0.6 -2.5 0.8 c -1.1 0.4 -1.1 0.4 -2.2 0.8 c -1.8 0.5 -1.8 0.5 -3.8 0.5 c 0.5 0.5 0.9 1 1.4 1.5 c 0.6 0.7 1.2 1.4 1.9 2.1 c 0.6 0.7 1.2 1.3 1.8 2 c 4.8 5.8 7.5 11.8 10.2 18.7 c 0.4 0.9 0.7 1.9 1.1 2.8 c 0.9 2.3 1.8 4.5 2.6 6.8 c 0.8 -0.3 0.8 -0.3 1.7 -0.6 c 3.7 -1.3 7.5 -2.5 11.3 -3.5 c 6.9 -2 6.9 -2 12.2 -6.5 c 1.9 -3.9 3 -8 3.8 -12.4 h 11 l 2 -4 c 0.8 -1.1 1.6 -2.2 2.5 -3.3 c 0.5 -0.6 0.9 -1.2 1.4 -1.8 c 0.5 -0.6 1 -1.2 1.5 -1.9 c 0.5 -0.6 1 -1.2 1.5 -1.8 c 0.9 -1.2 1.9 -2.4 2.8 -3.6 c 1.2 -1.5 2.4 -3.1 3.5 -4.6 c 0.9 -1 0.9 -1 1.8 -2.1 h 2 c 0 0.9 0.1 1.8 0.1 2.7 c 0.5 8.5 0.9 16.9 1.4 25.4 c 0.2 4.4 0.5 8.7 0.7 13.1 c 0.2 4.2 0.5 8.4 0.7 12.6 c 0.1 1.6 0.2 3.2 0.3 4.8 c 0.1 2.3 0.2 4.5 0.4 6.8 c 0.1 1.9 0.1 1.9 0.2 3.9 c 0.1 1.2 0.2 2.5 0.3 3.7 c 0 0.7 0.1 1.4 0.1 2.2 c 0.3 4.1 0.3 4.1 2.4 7.5 c 0.7 0.3 1.3 0.6 2 1 c 0.8 0.4 1.5 0.8 2.3 1.1 c 0.8 0.4 1.6 0.7 2.5 1.1 c 0.8 0.4 1.7 0.8 2.5 1.2 c 2.7 1.3 5.4 2.5 8.1 3.8 c 1.8 0.9 3.6 1.7 5.5 2.6 c 3.3 1.6 6.6 3.2 10 4.7 c 3.6 1.7 3.6 1.7 4.6 2.7 c 5.2 27.8 4.8 56.5 4.8 84.6 c 0 3.7 0 7.3 0 11 c 0 30.8 -1.1 60.5 -6.4 90.8 c -3.2 18.5 -4.7 36.6 -5.4 55.3 c 0 0.7 -0.1 1.4 -0.1 2.1 c -0.3 9 -0.6 18 -0.9 27 c -0.1 4.1 -0.2 8.3 -0.4 12.4 c 0 0.7 0 1.4 -0.1 2.1 c -0.1 3.4 -0.2 6.8 -0.3 10.1 c -0.2 6.2 -0.4 12.5 -0.5 18.7 c -0.3 11.8 -1.1 23.4 -2.6 35.1 c -1.1 8.2 -1.7 16.4 -2.3 24.6 c -2.6 33.9 -7.8 66 -16.1 98.9 c -6.5 25.5 -11.1 50 -12.2 76.4 c -0.7 14.7 -3.5 27.5 -8.4 41.4 c -1.2 3.4 -2.3 6.9 -3.4 10.3 c -2.2 6.7 -4.4 13.4 -6.6 20.1 c -2 6.1 -4 12.1 -6 18.2 c -0.2 0.7 -0.4 1.3 -0.7 2 c -4.9 14.9 -9.7 29.8 -14.4 44.8 c -3.6 11.3 -7.2 22.5 -11 33.7 c -19.8 51.3 -19.8 51.3 -29.1 104.3 c 9.3 3.2 18.7 6.3 28 9.4 c 4.4 1.4 8.7 2.9 13 4.4 c 19.3 6.7 37.3 11.4 57.9 11.3 c 0.8 0 1.7 0 2.6 0 c 8.9 -0.1 16.6 -0.5 24.4 -5 l 1 9 l 63 5 l 1 14 c 0.8 3.8 1.6 7.4 2.7 11.1 c 0.6 2.1 1.1 4.3 1.7 6.4 c 0.3 1.1 0.6 2.2 0.9 3.4 c 14 52.5 25.6 103.5 25 158.2 c 0 1.1 0 2.1 0 3.2 c -0.1 24.6 -2.5 47.9 -7.5 72 c -4.2 20.6 -5 40.4 -4.7 61.4 c 0 3.6 0 7.2 0 10.7 c 0 29.4 2.4 57.8 11 86.1 c 2 6.7 3.7 13.4 5.4 20.1 c 4.1 16 8.3 32 12.5 48 c 0.3 1.1 0.6 2.3 0.9 3.5 c 1.8 6.7 3.5 13.3 5.3 20 c 1.1 4.2 2.2 8.5 3.4 12.7 c 1.6 6.1 3.2 12.2 4.9 18.4 c 1.8 6.9 3.7 13.8 5.5 20.7 c 0.9 3.5 1.9 7.1 2.8 10.6 c 0.4 1.4 0.8 2.8 1.1 4.3 c 0.2 0.7 0.4 1.4 0.6 2.1 l 1.7 6.4 c 0.2 0.7 0.4 1.4 0.6 2.1 c 0.4 1.4 0.7 2.8 1.1 4.3 c 0.9 3.5 1.9 7 2.8 10.6 c 1.8 6.7 3.5 13.3 5.3 20 c 0.8 3.2 1.7 6.3 2.5 9.5 c 0.4 1.5 0.8 3 1.2 4.5 c 0.6 2.1 1.1 4.2 1.7 6.3 c 0.3 1.2 0.6 2.4 1 3.6 c 0.5 2 1.1 4 1.8 5.9 c 0.4 7.2 -0.2 14.3 -1 21.4 c -0.1 1 -0.2 1.9 -0.3 2.9 c -0.2 2 -0.4 4 -0.7 6.1 c -0.3 3.2 -0.7 6.4 -1 9.6 c -1 9.6 -2.2 19.2 -3.8 28.8 c -2.5 14.7 -2.7 29.2 -2.8 44.1 c -0.2 20.9 -1.2 41.7 -2.5 62.5 c -0.1 1.2 -0.1 1.2 -0.1 2.3 c -0.6 9.5 -1.2 18.9 -1.8 28.4 c -2.4 -2.3 -3.4 -3.7 -4 -7 h -2 c -0.3 0.9 -0.6 1.9 -0.9 2.8 c -1.1 3.2 -1.1 3.2 -3.1 6.2 c -3 0.4 -6 0.1 -9 0 c 2.7 -11.3 5.8 -22.4 9.3 -33.5 c 0.5 -1.5 0.9 -3 1.4 -4.6 c 1.1 -3.7 2.2 -7.3 3.4 -10.9 c -5.1 -0.7 -10.2 -1.2 -15 1 c -4.9 4.8 -7.2 11.8 -9.8 18 c -1.2 2.6 -2.3 5.1 -3.5 7.7 c -0.7 1.6 -1.4 3.2 -2.1 4.8 c -2.4 5.5 -2.4 5.5 -4.6 6.6 l -9 -17 l -5 18 h -10 c -0.3 0.9 -0.6 1.8 -0.9 2.8 c -1.1 3.3 -1.1 3.3 -3.1 7.3 h -10 l -5 -9 c -0.7 0.2 -1.5 0.5 -2.2 0.7 c -3.4 1.1 -6.7 2.2 -10.1 3.3 c -1.2 0.4 -2.3 0.8 -3.5 1.2 c -1.7 0.5 -1.7 0.5 -3.4 1.1 c -1 0.3 -2.1 0.7 -3.1 1 c -2.6 0.7 -2.6 0.7 -5.6 0.7 c 1.9 -5.8 1.9 -5.8 3 -8 c 0.2 -2.5 0.4 -5.1 0.6 -7.6 c 0.1 -1.1 0.1 -1.1 0.1 -2.1 c 0.1 -1.7 0.2 -3.5 0.3 -5.2 c -2.1 1.7 -4.3 3.3 -6.4 5 c -0.6 0.5 -1.3 1 -1.9 1.5 c -4.7 3.7 -9.3 7.4 -13.9 11.1 c -1.8 1.4 -1.8 1.4 -2.8 1.4 v -9 c -0.8 0.3 -1.7 0.6 -2.6 0.9 c -1.1 0.4 -2.2 0.7 -3.3 1.1 c -1.1 0.4 -2.2 0.7 -3.3 1.1 c -2.8 0.9 -2.8 0.9 -4.8 0.9 v -9 c -1.3 1.1 -2.6 2.2 -3.9 3.4 c -0.7 0.6 -1.4 1.3 -2.2 1.9 c -1.4 1.2 -2.7 2.4 -3.9 3.7 c -2 -0.2 -2 -0.2 -4.3 -0.8 c -0.8 -0.2 -1.6 -0.4 -2.4 -0.6 c -2.5 -0.7 -4.9 -1.6 -7.3 -2.6 c -0.2 -7.3 0.8 -14.1 1.9 -21.2 c 1.6 -10.4 1.6 -10.4 -0.4 -20.6 c -1 -2.7 -1.5 -4.2 -1.5 -7.2 h -2 c -0.4 1.1 -0.4 1.1 -0.9 2.2 c -1.8 4.4 -3.9 8.5 -6.1 12.6 c -0.4 0.9 -0.9 1.8 -1.3 2.7 c -0.5 0.8 -0.9 1.7 -1.4 2.5 c -0.4 0.8 -0.8 1.5 -1.2 2.3 c -2.1 1.7 -2.1 1.7 -12.1 1.7 l 5 -24 c -10 3.7 -10 3.7 -12.1 9.6 c -0.4 1.7 -0.7 3.4 -1.1 5.2 c -0.2 0.9 -0.4 1.8 -0.6 2.7 c -0.5 2.2 -0.9 4.3 -1.3 6.5 h -10 c -0.7 -2 -1.3 -3.9 -2 -5.9 c -0.4 -1.1 -0.7 -2.2 -1.1 -3.3 c -0.9 -2.8 -0.9 -2.8 -0.9 -4.8 h -2 c -0.3 0.7 -0.6 1.5 -0.8 2.2 c -1.1 2.6 -2.2 5.1 -3.7 7.6 c -0.4 0.8 -0.8 1.6 -1.3 2.4 c -3.6 2.9 -7.7 2.1 -12.2 1.8 c -1.6 -4.1 -3.1 -8.3 -4.6 -12.4 c -0.7 -1.7 -0.7 -1.7 -1.3 -3.5 c -3.9 -10.9 -3.3 -15.9 0.9 -27 h 44 c -0.8 -13 -0.8 -13 -5 -25 c -5.9 -4.9 -13.5 -6.8 -20.9 -8.5 c -2.1 -0.5 -2.1 -0.5 -3.1 -1.5 c -1.1 -11.3 -0.8 -22.6 4 -33 c 6.3 -0.2 12.3 0.5 18.6 1.5 c 9.7 1.5 16.7 2.6 25.4 -2.5 c 1.2 -16.6 1 -33.8 -9 -48 c -4 -2.8 -7.2 -2.9 -12 -3 c -2.3 -0.5 -4.5 -1.1 -6.8 -1.7 c -1 -0.3 -2 -0.5 -3 -0.8 c -1.1 -0.3 -1.1 -0.3 -2.2 -0.6 c 0.3 -1.1 0.3 -1.1 0.7 -2.2 c 0.3 -1 0.6 -1.9 0.9 -2.9 c 0.3 -0.9 0.6 -1.9 0.9 -2.8 c 1.2 -6.7 -0.9 -11.7 -4 -17.4 c -3.4 -6.5 -3.4 -6.5 -3.4 -8.7 l -20 5 c -1.5 -3.6 -3 -7.2 -4.5 -10.9 c -0.4 -1 -0.9 -2.1 -1.3 -3.1 c -0.4 -1 -0.8 -2 -1.2 -3 c -0.4 -0.9 -0.8 -1.8 -1.1 -2.8 c -0.8 -2.2 -0.8 -2.2 -0.8 -4.2 c -1.2 0.3 -2.4 0.6 -3.6 0.9 c -1.6 0.4 -3.1 0.8 -4.7 1.1 c -0.8 0.2 -1.6 0.4 -2.4 0.6 c -0.8 0.2 -1.5 0.4 -2.3 0.5 c -0.7 0.2 -1.4 0.3 -2.1 0.5 c -2 0.4 -2 0.4 -6 0.4 c -0.4 1.1 -0.4 1.1 -0.8 2.2 c -2.6 6.2 -5.3 11.3 -11.5 14.6 c -3.9 1.5 -7.7 2.7 -11.6 3.9 c -1.4 0.4 -2.7 0.9 -4.1 1.3 c -3.3 1.1 -6.6 2.1 -10 3.1 c 0.3 0.7 0.6 1.3 0.9 2 c 1.3 3 2.5 6.1 3.8 9.2 c 0.4 1.1 0.9 2.1 1.4 3.2 c 0.6 1.5 0.6 1.5 1.3 3.1 c 0.4 0.9 0.8 1.9 1.2 2.8 c 0.9 4.2 -0.7 6.6 -2.9 10 c -0.5 0.8 -1 1.5 -1.6 2.3 c -1.8 2.5 -2.9 4.4 -3.9 7.4 c 1.1 0.3 2.3 0.7 3.4 1 c 4.7 1.6 9.1 3.5 13.5 5.6 c 0.7 0.3 1.4 0.7 2.2 1 c 3 1.4 6 2.8 9 4.2 c 2.2 1 4.4 2.1 6.6 3.1 c 1 0.5 1 0.5 2 1 c 3.6 1.7 3.6 1.7 7.5 1.9 c 1.6 -0.7 3.3 -1.5 4.9 -2.4 c 2.9 -1.4 2.9 -1.4 4.9 -1.4 c 1.5 1.5 1.5 1.5 3.3 3.6 c 2.3 2.7 4.5 5.1 7.3 7.4 c 2.5 3 2.5 3 2.6 6.6 c -0.3 1.5 -0.7 2.9 -1.1 4.4 c -0.1 0.9 -0.2 1.8 -0.4 2.8 c -0.8 4.7 -1.5 8.1 -5 11.5 c -3 2 -6 3.8 -9.2 5.5 c -1.1 0.6 -2.1 1.2 -3.2 1.9 c -7.7 4.4 -7.7 4.4 -10.2 4.4 v 10 c -2.5 0.2 -5 0.3 -7.5 0.5 c -2.8 0.6 -3.6 1.5 -5.5 3.5 c -4 -0.3 -7.3 -1.5 -11 -3 c -0.6 1 -1.3 2 -1.9 3 c -0.9 1.3 -1.7 2.6 -2.6 3.9 c -0.4 0.6 -0.8 1.3 -1.3 1.9 c -3.2 4.6 -5.8 6.5 -11.2 8.2 c 1.6 -5.8 4.6 -10.3 8 -15.3 c 2.2 -3.5 3.3 -5.8 2.9 -10 c -0.6 -2.8 -1.2 -5.2 -2.4 -7.8 c -0.5 -1 -0.9 -2 -1.4 -3 l -4 8 c -16.1 -5.1 -30.8 -13.4 -43 -25 c -1.8 -1.6 -3.6 -3.2 -5.4 -4.8 c -0.7 -0.7 -1.5 -1.3 -2.2 -2 c -2.3 -1.5 -2.3 -1.5 -5.1 -0.7 c -12.9 6 -27.3 17.6 -33.7 30.4 c -2 5.6 -3 11.2 -3.6 17.1 h -10 v -29 l -8 4 h -2 c -0.1 0.7 -0.2 1.3 -0.2 2 c -0.4 3.1 -0.8 6.2 -1.1 9.3 c -0.1 1.1 -0.3 2.1 -0.4 3.2 c -0.4 3.2 -0.8 6.3 -1.2 9.5 c -0.1 1 -0.3 2.1 -0.4 3.2 c -0.1 1 -0.3 2 -0.4 3 c -0.1 0.9 -0.2 1.8 -0.4 2.7 c -0.8 2.2 -0.8 2.2 -3 3.7 c -1.6 0.7 -3.2 1.4 -4.8 2.1 c -2.2 1.3 -2.2 1.3 -2.8 3.9 c -0.2 2.5 -0.3 5 -0.2 7.5 h 9 c -2.4 4.4 -5.4 8 -8.8 11.8 c -4.2 4.8 -8.2 9.7 -12 14.8 c -0.6 0.7 -0.6 0.7 -1.2 1.5 h -1 c 0 -0.8 0 -1.6 0 -2.5 c 0.2 -22 -2.8 -42 -8.3 -63.3 c -0.7 -3.2 -0.7 -3.2 -0.7 -7.2 h -10 c 0 -0.9 0 -1.8 0.1 -2.7 c -0.2 -10.9 -3.3 -18.1 -8.7 -27.4 c -0.8 -1.4 -1.5 -2.8 -2.3 -4.2 c -1.6 -2.8 -3.1 -5.7 -4.7 -8.5 c -3.3 -5.9 -6.4 -11.8 -9.6 -17.7 c -1.5 -2.8 -3 -5.6 -4.5 -8.4 c -0.5 -1 -1.1 -2.1 -1.7 -3.1 c -1.5 -2.9 -1.5 -2.9 -3.3 -5.4 c -6 -9.2 -5.9 -19.6 -6.6 -30.2 c -0.2 -1.9 -0.3 -3.9 -0.5 -5.8 c -0.9 -10.8 -1.6 -21.7 -2.2 -32.5 h -6 c -0.1 1.4 -0.1 1.4 -0.1 2.8 c -0.6 11.5 -2.1 22.8 -3.9 34.2 c -12.5 -18.7 -11.7 -42.3 -12.4 -63.8 c -0.2 -4.5 -0.4 -9.1 -0.6 -13.6 c -0.6 -14.2 -1.2 -28.3 -1 -42.5 h -6 v 102 c -10.1 -6.7 -10.1 -6.7 -13.6 -9.4 c -1.2 -0.9 -1.2 -0.9 -2.4 -1.8 c -1.2 -0.9 -1.2 -0.9 -2.5 -1.9 c -8.7 -6.6 -17.5 -13 -26.3 -19.3 c -4 -2.9 -8 -5.7 -12 -8.6 c -2.1 -1.5 -4.2 -3.1 -6.3 -4.6 c -1.3 -1 -2.6 -1.9 -3.9 -2.9 c -1.6 -1.2 -3.3 -2.4 -5 -3.5 c -3.2 0.5 -3.2 0.5 -6 2 c -1.3 0.3 -2.7 0.7 -4 1 c 4 4.3 8.4 7.6 13.1 10.9 c 1.6 1.1 3.2 2.3 4.8 3.4 c 0.8 0.6 1.7 1.2 2.5 1.8 c 5.8 4.1 11.5 8.4 17.2 12.6 c 2.6 1.9 5.2 3.8 7.8 5.6 c 7.6 5.4 13.3 11.7 19.2 18.9 c 1.3 1.6 2.7 3.2 4 4.8 c 6.7 8 10.9 15.7 14.6 25.3 c 0.4 0.9 0.7 1.8 1.1 2.8 c 0.9 2.3 1.8 4.5 2.6 6.8 l 10 -4 c 18.3 37.5 18.3 37.5 25.2 52.8 c 2.7 5.9 5.5 11.6 8.7 17.2 c 10.4 18.5 15.2 38.1 9.5 59.2 c -2.8 9 -6.9 17.6 -11.4 25.9 c -1 -3 -1 -3 -0.1 -5.9 c 1.7 -5.6 1.4 -11.5 1.5 -17.3 c 0 -1.3 0 -2.5 0.1 -3.8 c 0.1 -3.3 0.1 -6.6 0.1 -9.9 c 0 -3.4 0.1 -6.8 0.1 -10.2 c 0.1 -6.6 0.2 -13.3 0.3 -19.9 l -10 1 l -13 48 h -1 c 0 -0.5 0 -1.1 0 -1.7 c 0.5 -41.3 -3.7 -81.1 -9.7 -121.8 c -0.3 -2.5 -0.3 -2.5 -0.3 -4.5 h -5 c 0 0.7 -0.1 1.3 -0.1 2 c -0.4 6.9 -0.9 13.9 -1.4 20.8 c -0.2 2.6 -0.4 5.2 -0.5 7.7 c -1.5 25.9 -1.5 25.9 -11.3 35.1 c -1.3 1.2 -1.3 1.2 -2.7 2.4 c -1.4 1.7 -2.8 3.5 -4.1 5.3 c -0.9 1.2 -1.9 2.5 -2.9 3.7 h -1 c -1.9 -22.3 -3.6 -44.6 -5 -67 h -6 c 0 1.3 0 2.5 0.1 3.8 c 0.1 11.9 -0.2 23.8 -0.7 35.7 c 0 0.7 -0.1 1.5 -0.1 2.2 c -0.3 6 -0.6 12 -0.9 18 c -1.1 22.6 -1.1 22.6 -1.7 45.3 c 0 0.9 0 1.8 -0.1 2.7 c 0 5.2 0.8 9.4 2.7 14.3 c 0.6 1.9 0.6 1.9 0.6 4.9 h -9 c 0.1 -1.8 0.1 -1.8 0.3 -3.6 c 1.1 -32 -16.1 -64.3 -30.9 -91.7 c -2.4 -4.5 -2.4 -4.5 -2.4 -6.7 c -0.6 0.3 -1.3 0.6 -1.9 0.9 c -0.8 0.4 -1.6 0.7 -2.5 1.1 c -0.8 0.4 -1.6 0.7 -2.5 1.1 c -2.2 0.9 -2.2 0.9 -4.2 0.9 c 2.7 5.4 5.4 10.8 8.1 16.2 c 0.9 1.8 1.8 3.7 2.7 5.5 c 1.3 2.6 2.6 5.3 3.9 7.9 c 0.4 0.8 0.8 1.7 1.2 2.5 c 0.6 1.1 0.6 1.1 1.2 2.3 c 0.5 1 0.5 1 1 2 c 0.7 1.6 0.7 1.6 1.8 2.6 c 0.1 2.4 0.1 4.7 0.1 7.1 c 0 1.9 0 1.9 0 3.9 c 0 1.5 0 1.5 0 3 c -3.9 -3.8 -7.3 -7.7 -10.7 -12 c -0.8 -1 -0.8 -1 -1.6 -2 c -4.2 -5.3 -8.3 -10.7 -12.5 -16.1 c -3.1 -4 -6.2 -8 -9.3 -12 l -5 8 c -4.9 -0.6 -8.6 -2.7 -12.8 -5.1 c -1 -0.6 -1 -0.6 -2.1 -1.1 c -1.7 -0.9 -3.4 -1.9 -5.1 -2.8 c 0.6 1.8 0.6 1.8 1.2 3.7 c 3 9.4 5.8 18.6 7.8 28.3 c -3.6 -2.7 -6.4 -5.6 -9.3 -9.1 c -3 -3.7 -6 -7.3 -9.3 -10.8 c -6.5 -7.2 -12.1 -14.5 -16.8 -23 c -6.8 -13 -6.8 -13 -18.7 -20.3 c -3.2 -0.6 -6.3 -1 -9.5 -1.4 c -6.6 -0.8 -9.9 -1.4 -14.2 -6.7 c -1.1 -1.6 -2.1 -3.2 -3.1 -4.9 c -1.6 -2.7 -3.5 -5.1 -5.4 -7.6 c -1 -1.4 -2 -2.7 -3 -4.1 c -2.5 -3.4 -5 -6.6 -8.1 -9.6 c -6.7 -6.8 -9.2 -11.7 -9.4 -21.5 c 0.1 -5 0.4 -10 0.8 -15 c 0.6 -0.2 1.1 -0.4 1.7 -0.7 c 10.6 -3.8 10.6 -3.8 18.3 -11.3 c 1 -4.4 0.7 -8.6 0 -13.1 c -1.6 -0.3 -3.2 -0.6 -4.9 -0.9 c -0.9 -0.2 -1.8 -0.3 -2.7 -0.5 c -4.4 -0.7 -8.9 -1.1 -13.4 -1.5 c -12.8 17.9 -12.8 17.9 -17.7 38.4 c 0.7 2.6 1.5 4.8 2.7 7.3 l 1.3 2.7 c 0.5 1 0.9 1.9 1.4 2.9 c 0.5 1 1 2 1.5 3 c 1 2.1 2.1 4.2 3.1 6.3 c 1 2.1 2.1 4.3 3.1 6.4 c 8 16.8 8 16.8 21.6 29.1 c 1.7 1.5 3.4 3 5 4.5 c 3.5 3.2 7 6.2 10.7 9.1 c 6.4 5.2 11.9 10.8 17.3 17.1 c 2.5 2.8 5 5.6 7.5 8.3 c 3.6 3.9 7.1 7.8 10.6 11.9 c 1.6 1.8 3.1 3.5 4.7 5.2 c 0.8 0.8 0.8 0.8 1.5 1.6 c 1 1.1 2 2.1 3 3.2 c 2.2 2.4 3.6 4 4.6 7.1 c -3.4 -0.5 -6.8 -1 -10.3 -1.4 c -1 -0.1 -1.9 -0.3 -2.9 -0.4 c -0.9 -0.1 -1.9 -0.3 -2.8 -0.4 c -0.9 -0.1 -1.7 -0.2 -2.6 -0.4 c -2.4 -0.4 -2.4 -0.4 -4.2 -0.9 c -2.6 -0.6 -5.1 -0.7 -7.8 -0.7 c -1.1 0 -2.2 0 -3.4 -0.1 c -1.2 0 -2.4 0 -3.6 -0.1 c -1.2 0 -2.5 0 -3.8 -0.1 c -3.3 -0.1 -6.6 -0.1 -9.8 -0.2 c -3.4 -0.1 -6.7 -0.1 -10.1 -0.2 c -6.6 -0.1 -13.1 -0.2 -19.7 -0.3 v 6 c 1.3 0.1 2.6 0.3 3.9 0.4 c 5.3 0.6 10.7 1.3 16 2 c 2.9 0.4 5.9 0.7 8.8 1 c 38.4 4.1 38.4 4.1 51.3 19.5 c 1.3 1.3 2.7 2.7 4 4 c -6.3 -1.3 -12.5 -3 -18.6 -4.9 c -0.9 -0.3 -1.8 -0.6 -2.7 -0.9 c -2.9 -0.9 -5.8 -1.8 -8.8 -2.7 c -2 -0.6 -4 -1.3 -6.1 -1.9 c -5.4 -1.7 -10.7 -3.4 -16.1 -5.1 c -10.6 -3.4 -21.3 -6.8 -31.9 -10.3 c -5.6 -1.2 -10.6 -1.3 -16.5 -0.5 c -0.7 0.1 -1.4 0.2 -2.1 0.3 c -2.2 0.3 -4.3 0.6 -6.5 0.9 c -2.2 0.3 -4.4 0.6 -6.6 0.9 c -2 0.3 -3.9 0.5 -5.9 0.8 c -3.3 0.4 -3.3 0.4 -7.3 0.4 l -0.9 2.8 c -0.9 2.6 -1.9 4.8 -3.1 7.3 c 0.8 -0.1 1.7 -0.2 2.5 -0.4 c 3.1 -0.5 6.3 -0.9 9.4 -1.3 c 1.4 -0.2 2.7 -0.4 4.1 -0.6 c 2 -0.3 3.9 -0.6 5.9 -0.8 c 1.2 -0.2 2.3 -0.3 3.6 -0.5 c 9.1 -0.9 15.7 0.5 24.4 3.2 c 1.2 0.4 2.5 0.8 3.8 1.1 c 3.3 1 6.7 2.1 10 3.1 c 2.1 0.6 4.1 1.3 6.2 1.9 c 20.6 6.4 40.3 13.8 59.5 23.5 c 7.1 3.6 14.4 6.7 21.7 9.8 v 9 c -6.8 -1.3 -12.9 -3.3 -19.3 -5.9 c -1 -0.4 -2.1 -0.8 -3.1 -1.3 c -10.4 -4.2 -20.7 -8.6 -31.1 -13 c -3 -1.3 -6 -2.5 -9 -3.8 c -16.2 -6.8 -16.2 -6.8 -24 -10.7 c -18.2 -9 -35.7 -8.9 -55.6 -8.4 l 1 5 l 23 5 l -2 6 c -2.5 8 -4.9 15.9 -7 24 c 0.7 0.1 1.4 0.2 2.1 0.3 c 3.5 0.9 6 2.5 9.1 4.4 c 12.5 6.7 27.2 8.4 41 11 c 3.8 0.7 7.6 1.5 11.4 2.2 c 7.4 1.4 14.9 2.8 22.3 4.2 v 1 c -15.4 0.4 -30.2 -0.8 -45.4 -2.8 c -2.3 -0.3 -4.6 -0.6 -6.8 -0.9 c -5.9 -0.8 -11.8 -1.5 -17.8 -2.3 c -9.5 -1.2 -19 -2.5 -28.5 -3.7 c -3.3 -0.4 -6.6 -0.9 -9.9 -1.3 c -2 -0.3 -4.1 -0.5 -6.1 -0.8 c -1.4 -0.2 -1.4 -0.2 -2.7 -0.4 c -10.9 -1.9 -10.9 -1.9 -21.1 0.7 c -1.9 1.7 -3.4 3.2 -4.7 5.5 c 0.4 3.7 1.9 5.2 4.6 7.6 c 1.1 1 1.1 1 2.2 2.1 c 0.8 0.7 1.6 1.4 2.4 2.2 c 6.9 6.5 10.2 11.1 12.6 20.3 c 0.9 2.9 0.9 2.9 3.5 4.5 c 2.6 1 5 1.7 7.7 2.3 c 2.7 0.7 2.7 0.7 5 2 c 1.4 2.8 1.4 2.8 2.3 6 c 0.3 1.1 0.7 2.1 1 3.3 c 0.7 2.8 0.7 2.8 0.7 4.8 l -51 1 l 8 4 v 10 c -0.9 0.1 -1.7 0.1 -2.6 0.2 c -49.1 3.1 -98.2 6.6 -147.3 10.4 c -1.3 0.1 -2.5 0.2 -3.9 0.3 c -15.6 1.2 -31.2 2.4 -46.8 3.6 c -9.4 0.7 -18.8 1.5 -28.2 2.2 c -0.7 0.1 -1.3 0.1 -2 0.2 c -7.4 0.6 -14.7 1.1 -22.1 1.7 c -1.3 0.1 -2.6 0.2 -3.9 0.3 c -2.6 0.2 -5.1 0.4 -7.7 0.6 c -7.4 0.6 -14.9 1.2 -22.3 1.7 c -4.6 0.4 -9.1 0.7 -13.7 1.1 c -2.1 0.2 -4.2 0.3 -6.3 0.5 c -2.9 0.2 -5.7 0.4 -8.6 0.7 c -0.8 0.1 -1.7 0.1 -2.5 0.2 c -3 0.2 -6 0.4 -9.1 0.4 h 3532 c -45.1 -3.7 -45.1 -3.7 -65.3 -5.7 c -0.7 -0.1 -1.4 -0.1 -2.1 -0.2 c -0.7 -0.1 -1.4 -0.1 -2.1 -0.2 c -0.7 -0.1 -1.5 -0.1 -2.2 -0.2 c -34.8 -3.5 -69.5 -7.7 -104.2 -12.1 c -6.5 -0.8 -13 -1.6 -19.5 -2.4 c -7.2 -0.9 -14.4 -1.8 -21.5 -2.7 c -3 -0.4 -6 -0.8 -9 -1.1 c -4.1 -0.5 -8.3 -1 -12.4 -1.6 c -1.8 -0.2 -1.8 -0.2 -3.7 -0.5 c -1.1 -0.1 -2.2 -0.3 -3.4 -0.4 c -1 -0.1 -1.9 -0.2 -2.9 -0.4 c -2.5 -0.5 -4.3 -1.3 -6.5 -2.5 c 1 -0.2 2 -0.4 3.1 -0.6 c 7.7 -1.4 7.7 -1.4 14 -5.7 c 1.2 -2.2 2.1 -4.3 2.9 -6.7 c -3.8 -0.8 -7.5 -1.2 -11.3 -1.5 c -1.3 -0.1 -2.5 -0.2 -3.8 -0.2 c -0.7 0 -1.3 -0.1 -2 -0.1 c -2.1 -0.1 -4.2 -0.3 -6.3 -0.4 c -4.5 -0.3 -8.9 -0.5 -13.4 -0.8 c -5.2 -0.3 -10.3 -0.6 -15.5 -0.9 c -2.1 -0.1 -4.1 -0.2 -6.2 -0.4 c -1.9 -0.1 -1.9 -0.1 -3.8 -0.2 c -1.1 -0.1 -2.2 -0.1 -3.4 -0.2 c -3.4 -0.3 -6.8 -0.7 -10.2 -1.3 c 1.3 -3.6 2.9 -6.7 5 -10 c 0.6 -1 1.2 -1.9 1.8 -2.9 c 0.6 -1 1.3 -2 1.9 -3.1 c 0.7 -1 1.3 -2.1 2 -3.2 c 5.3 -8.4 10.6 -16.8 15.9 -25.1 c 0.6 -0.9 1.1 -1.7 1.7 -2.6 c 0.5 -0.8 1 -1.5 1.5 -2.3 c 1.2 -1.9 1.2 -1.9 2.2 -3.9 c -10.7 0.5 -21.4 1 -32.1 1.5 c -5 0.2 -9.9 0.5 -14.9 0.7 c -4.8 0.2 -9.6 0.5 -14.4 0.7 c -1.8 0.1 -3.6 0.2 -5.5 0.3 c -5 0.2 -9.9 0.5 -14.9 0.7 c -2 0.1 -4 0.2 -6 0.3 c -8 0.5 -15.6 1.7 -23.4 3.4 c -2.1 0.4 -4.2 0.9 -6.2 1.3 c -4.4 0.9 -8.8 1.8 -13.2 2.8 c -5.1 1.1 -10.3 2.2 -15.4 3.2 c -2 0.4 -4.1 0.9 -6.1 1.3 c -1.2 0.3 -2.5 0.5 -3.7 0.8 c -1.1 0.2 -2.2 0.5 -3.3 0.7 c -2.7 0.3 -4.3 0.3 -6.8 -0.6 c 13.3 -8.2 26.9 -10.5 42.2 -12.8 c 3.5 -0.5 7 -1.1 10.4 -1.7 c 2.1 -0.3 4.3 -0.7 6.4 -1 c 6.9 -1 6.9 -1 12.9 -4.5 c 2.5 -4.8 3.9 -9.7 5.2 -14.9 c 0.2 -0.7 0.4 -1.4 0.5 -2.1 c 0.4 -1.7 0.9 -3.3 1.3 -5 h -10 v -29 c -9.6 0.6 -9.6 0.6 -18.5 2.7 c -1.1 0.4 -2.2 0.7 -3.4 1.1 c -1.7 0.6 -1.7 0.6 -3.5 1.2 c -1.2 0.4 -2.5 0.8 -3.7 1.2 c -2.6 0.8 -5.2 1.7 -7.7 2.6 c -3.3 1.1 -6.5 2.2 -9.8 3.2 c -3.2 1 -6.3 2.1 -9.5 3.1 c -1.2 0.4 -2.3 0.7 -3.5 1.1 c -7.7 2.6 -12.7 6.1 -18.4 11.8 c -2.2 1.9 -4.5 3.7 -6.9 5.6 c -0.6 0.4 -1.1 0.9 -1.7 1.4 c -1.6 1.3 -1.6 1.3 -4.4 3.1 c -3 -1 -3 -1 -4.2 -2.9 c -0.8 -2.1 -0.8 -2.1 -0.8 -5.1 c 1.3 0 2.6 -0.1 3.9 -0.1 c 6 -0.7 9.6 -3.7 14.1 -7.5 c 0.8 -0.6 1.5 -1.2 2.3 -1.8 c 7.2 -5.8 14.1 -11.9 20.7 -18.4 c 0.5 -0.5 1 -1 1.5 -1.4 c 1.2 -1.2 2.4 -2.5 3.5 -3.7 v -2 c -3.2 -0.7 -6.4 -1.4 -9.6 -2.1 c -1.4 -0.3 -1.4 -0.3 -2.7 -0.6 c -0.9 -0.2 -1.8 -0.4 -2.7 -0.6 c -1.2 -0.3 -1.2 -0.3 -2.4 -0.5 c -5.5 -0.6 -9.4 0.9 -14 3.7 c -1 0.6 -2 1.2 -3.1 1.8 l -3.2 1.9 c -1 0.6 -2.1 1.2 -3.2 1.9 c -3 1.8 -6 3.6 -9 5.5 c -0.8 0.5 -1.6 1 -2.4 1.4 c -6.4 4 -11.4 9 -16.6 14.4 c -0.9 0.9 -1.7 1.8 -2.6 2.7 c -2.1 2.1 -4.2 4.3 -6.3 6.5 l -1 -2 c 4.6 -11.3 11.8 -20.1 20 -29 c 1.7 -1.9 3.5 -3.8 5.2 -5.7 c 0.8 -0.9 1.6 -1.8 2.5 -2.7 c 2.3 -2.6 4.5 -5.3 6.7 -8 c 3.9 -4.8 8 -9.3 12.2 -13.8 c 3.9 -4.2 7.5 -8.5 11.1 -13 c 3.3 -3.9 6.8 -7.7 10.4 -11.3 c 2.8 -3 4.8 -5.5 6 -9.5 c -4 -2.4 -4 -2.4 -8.4 -2.8 c -2.9 0.9 -4.7 2.1 -7.1 4 c -1.3 1 -1.3 1 -2.6 2 c -0.9 0.7 -1.8 1.4 -2.7 2.2 c -10.9 8.6 -10.9 8.6 -15.8 11.8 c -0.7 0.5 -1.4 0.9 -2.1 1.4 c -1.3 0.9 -2.6 1.7 -3.9 2.5 c -2.6 1.7 -4.2 3.2 -5 6.2 c -0.3 2.2 -0.4 4.4 -0.4 6.7 c -1.2 -0.1 -2.5 -0.1 -3.8 -0.2 c -7.5 0.8 -12 7.1 -16.9 12.3 c -1 1 -2 2.1 -3 3.1 c -4.7 4.9 -9.3 9.9 -13.8 15 c -2.7 3.1 -5.5 6.1 -8.3 9.1 c -5.7 6 -11.3 12.1 -16.8 18.2 c -2.6 2.8 -5.2 5.6 -7.8 8.5 c -0.7 0.8 -0.7 0.8 -1.5 1.6 c -3 3.2 -6 6.4 -9.1 9.5 c 1.3 -4 2.7 -7.8 4.5 -11.6 c 9.3 -20.9 9.3 -20.9 12.5 -43.4 c -0.5 0.5 -1 1 -1.5 1.5 c -0.6 0.6 -1.3 1.3 -1.9 2 c -0.6 0.6 -1.3 1.3 -1.9 2 c -1.6 1.5 -1.6 1.5 -2.6 1.5 c -1.1 -14.3 1.2 -25.4 6.3 -38.9 c 2 -5.4 2.7 -9.1 0.3 -14.5 c -0.7 -1.3 -0.7 -1.3 -1.5 -2.6 c -9.7 4.5 -18.6 13.8 -22.6 23.7 c -2.2 6.2 -3.8 12.5 -5.4 18.8 c -0.6 2.2 -1.2 4.4 -1.8 6.6 c -1.5 5.3 -2.8 10.6 -4.2 15.9 c -1.8 -3.2 -2.6 -6.3 -3.4 -10 c -0.3 -1.2 -0.5 -2.4 -0.8 -3.6 c -0.3 -1.3 -0.6 -2.6 -0.8 -3.9 c -0.3 -1.3 -0.6 -2.7 -0.9 -4 c -0.8 -3.5 -1.5 -7 -2.3 -10.6 c -0.8 -3.6 -1.5 -7.2 -2.3 -10.8 c -1.5 -7 -3 -14.1 -4.5 -21.1 c -1.8 2.7 -2.7 4.7 -3.6 7.7 c -0.5 1.4 -0.9 2.8 -1.4 4.3 h -11 c -0.1 1.8 -0.2 3.6 -0.3 5.4 c -0.8 11.4 -2.6 22.7 -4.3 34 c -0.3 2.3 -0.7 4.6 -1 6.9 c -0.8 5.6 -1.6 11.2 -2.4 16.7 c -2.2 -2.2 -2.4 -3 -2.9 -6 c -0.2 -1.2 -0.2 -1.2 -0.4 -2.4 c -0.2 -1.2 -0.2 -1.2 -0.4 -2.5 c -0.1 -0.8 -0.3 -1.6 -0.4 -2.5 c -0.6 -3.6 -1 -6.9 -1 -10.7 h -6 c -0.2 1.7 -0.2 1.7 -0.4 3.3 c -0.6 5.1 -1.5 10 -2.5 15.1 c -0.3 1.4 -0.3 1.4 -0.5 2.9 c -0.6 3.1 -1.1 6.1 -1.7 9.2 c -0.4 2.1 -0.8 4.2 -1.1 6.3 c -0.9 5.1 -1.9 10.2 -2.8 15.3 c -11.6 -17.4 -11.7 -39.6 -11.7 -59.7 c 0 -0.7 0 -1.5 0 -2.3 c -0.1 -22.7 2.4 -42.6 10.4 -63.9 c 0.4 -1.1 0.8 -2.2 1.2 -3.3 c 4.9 -13 10.9 -23.4 20.6 -33.3 c 2.3 -2.4 4.4 -5 6.5 -7.7 c 5.1 -6.4 10.8 -11.4 17.2 -16.4 c 0.8 -0.6 1.6 -1.2 2.4 -1.8 c 8.3 -6.4 16.9 -12.6 25.5 -18.7 c -1.1 -5.1 -2.2 -10.1 -4 -15 c -2.9 0.6 -5.9 1.2 -8.8 1.8 c -0.8 0.2 -1.7 0.3 -2.5 0.5 c -1.2 0.3 -1.2 0.3 -2.4 0.5 c -0.7 0.2 -1.5 0.3 -2.2 0.5 c -3.3 1.2 -4.6 3 -6.3 6.1 c -0.4 0.9 -0.9 1.8 -1.3 2.7 c -8 15.8 -8 15.8 -12.4 17.8 c -2.8 0.4 -5.3 0.2 -8.1 -0.1 c -2.8 -0.2 -5.1 -0.3 -7.6 1.3 c -3.4 3.3 -6.1 7.1 -8.8 10.9 c -2.5 3.4 -5.2 6.4 -8 9.6 c -1 1.1 -1.9 2.3 -2.9 3.4 c -0.6 0.7 -0.6 0.7 -1.2 1.4 c -0.5 0.5 -0.9 1.1 -1.4 1.6 c -1 1.1 -1 1.1 -1.9 2.2 c -2.3 3.2 -3.3 5.9 -4.5 9.7 c -0.3 1 -0.3 1 -0.6 2 c -0.7 2.2 -1.4 4.4 -2 6.6 c -0.5 1.5 -1 3.1 -1.4 4.6 c -1.3 4.1 -2.5 8.1 -3.8 12.2 c -1.3 4.1 -2.6 8.2 -3.8 12.4 c -1.9 6 -3.8 12.1 -5.6 18.1 c -0.4 1.2 -0.7 2.4 -1.1 3.7 c -1.1 3.5 -2.1 7 -3 10.5 c -3.4 -3 -5.6 -6.4 -7.9 -10.3 c -1 -1.9 -1 -1.9 -3.1 -2.7 c 0 0.6 0 1.3 0 1.9 c 0.1 10 -0.6 19.9 -1.2 29.9 c -0.1 1.9 -0.3 3.9 -0.4 5.8 c -0.3 4.1 -0.5 8.2 -0.8 12.3 c -0.3 5.1 -0.7 10.2 -1 15.3 c -1.7 26.6 -3.6 53.2 -5.6 79.7 h -9 c 0.8 -8.1 0.8 -8.1 1.5 -11 c 1.6 -7.1 1.8 -13.9 1.7 -21.2 c 0 -1.2 0 -2.5 0 -3.7 c 0 -3.9 0 -7.8 -0.1 -11.7 c 0 -2.7 0 -5.3 0 -8 c 0 -6.5 -0.1 -12.9 -0.1 -19.4 l -8 11 c -2.3 -2.3 -2.9 -4.1 -4.1 -7.1 c -0.4 -1.1 -0.8 -2.2 -1.2 -3.3 c -0.4 -1.2 -0.9 -2.3 -1.3 -3.5 c -0.7 -1.8 -1.4 -3.7 -2.1 -5.5 c -1.2 -3.2 -2.4 -6.5 -3.6 -9.7 c -1.4 -3.8 -2.9 -7.7 -4.3 -11.5 c -0.9 -2.4 -1.8 -4.8 -2.7 -7.2 c -4.3 -11.3 -4.3 -11.3 -10.6 -21.5 c -0.5 -0.7 -1.1 -1.4 -1.6 -2.1 c -0.5 -0.7 -1.1 -1.4 -1.6 -2.1 c -0.6 -0.7 -1.1 -1.5 -1.7 -2.2 c -1.4 -1.8 -2.7 -3.5 -4.1 -5.3 c -0.7 1.6 -1.3 3.1 -1.9 4.7 c -0.4 0.9 -0.7 1.7 -1.1 2.6 c -2.4 6.5 -1.5 10 0.8 16.4 c 0.4 1.2 0.4 1.2 0.9 2.5 c 0.9 2.6 1.9 5.3 2.8 7.9 c 0.9 2.7 1.9 5.3 2.8 8 c 0.6 1.7 1.2 3.3 1.8 5 c 0.7 1.9 1.3 3.9 1.9 5.9 l -1 2 c -7.1 -10 -14.2 -20.1 -21.2 -30.1 c -0.6 -0.8 -1.1 -1.6 -1.7 -2.4 c -0.8 -1.1 -0.8 -1.1 -1.6 -2.3 c -1.5 -2.1 -2.9 -4.1 -4.4 -6.1 c -2.1 -3 -2.1 -3 -2.1 -5 h -11 c 0.2 9.4 2.7 15.1 7.6 23 c 1 1.7 2 3.4 3 5.1 c 1.1 1.8 2.1 3.5 3.2 5.3 c 3.4 5.6 6.7 11.2 10 16.8 c 1.1 1.8 2.1 3.5 3.2 5.3 c 1 1.6 1 1.6 1.9 3.3 c 0.6 0.9 1.1 1.9 1.7 2.9 c 1.3 2.4 1.3 2.4 2.3 5.4 c -5.1 -1.5 -9.8 -3.8 -14.6 -6.1 c -6.9 -3.3 -13.8 -6.3 -20.9 -9.1 c -1.3 -0.5 -1.3 -0.5 -2.6 -1 c -3.5 -1.4 -7 -2.7 -10.5 -4.1 c -2.6 -1 -5.2 -2 -7.9 -3 c -0.8 -0.3 -1.6 -0.6 -2.4 -0.9 c -6.2 -2.5 -10 -6.1 -14.1 -11.3 c -0.5 -0.6 -1 -1.2 -1.5 -1.9 c -0.5 -0.6 -1 -1.3 -1.5 -1.9 c -0.5 -0.6 -1 -1.3 -1.5 -2 c -1.2 -1.6 -2.4 -3.2 -3.7 -4.7 c -1.5 4 -2.3 7.8 -2.9 12.1 c -2 12 -8.1 19.9 -16.1 28.9 c -3.1 -2.6 -4.3 -5.7 -5.9 -9.4 c -0.3 -0.6 -0.5 -1.2 -0.8 -1.9 c -0.6 -1.3 -1.1 -2.6 -1.6 -3.9 c -0.8 -2 -1.7 -4 -2.5 -6 c -4.1 -9.7 -4.1 -9.7 -4.1 -10.9 h 9 v -15 c -15.9 -0.8 -24.6 5.6 -37.1 14.6 c -2.7 1.9 -5.5 3.9 -8.3 5.8 c -1.7 1.2 -3.4 2.4 -5.1 3.6 c -5.7 4 -5.7 4 -9.9 3.9 c -3 -1.1 -5.8 -2.4 -8.6 -4 c -0.3 0.9 -0.6 1.8 -0.9 2.8 c -0.9 2.6 -1.9 4.8 -3.1 7.3 c -1.1 0 -2.1 0 -3.2 0 c -3.9 0.1 -7.9 0.1 -11.8 0.2 c -1.7 0 -3.4 0.1 -5.1 0.1 c -2.5 0 -4.9 0.1 -7.4 0.1 c -0.8 0 -1.5 0 -2.3 0 c -4.8 0.1 -7.9 1.1 -12.2 3.5 h -2 v 11 c 1.6 0.4 3.2 0.8 4.8 1.2 c 1.4 0.4 2.9 0.7 4.3 1.1 c 3.9 1 7.5 1.8 11.5 2.1 c 5.1 0.6 9.3 1.3 13.4 4.6 c 4.9 6.7 14 20.5 14 29 c -1.3 0 -2.6 -0.1 -4 -0.1 c -1.7 0 -3.5 0 -5.2 0 c -0.9 0 -1.7 -0.1 -2.6 -0.1 c -2.7 0.1 -4.7 0.2 -7.2 1.1 c -1.4 2 -1.4 2 -2.5 4.5 c -1.1 2.5 -1.1 2.5 -2.5 4.5 c -3.5 1.2 -6.8 1 -10.4 0.8 c -10.2 0 -20 0.8 -30.1 2.3 c -1.3 0.2 -2.7 0.4 -4 0.6 c -3.2 0.4 -6.3 0.9 -9.5 1.4 c -0.1 6.6 -0.1 6.6 3.1 12.1 c 0.8 0.3 1.6 0.7 2.5 1.1 c 2.2 0.9 2.2 0.9 4.4 1.9 v 14 c -12.9 -3.9 -12.9 -3.9 -14 -5 c -0.1 -1.7 -0.1 -3.4 -0.1 -5.1 c 0 -0.9 0 -1.8 0 -2.8 c 0 -0.7 0 -1.4 0 -2.2 c -2 -0.7 -4 -1.4 -6 -2 c -1.2 -0.4 -1.2 -0.4 -2.4 -0.8 c -2.7 -0.5 -2.7 -0.5 -4.8 1.3 c -0.7 0.8 -1.5 1.5 -2.2 2.3 c -1.2 1.2 -1.2 1.2 -2.4 2.5 c -0.8 0.9 -1.6 1.7 -2.5 2.6 c -0.8 0.9 -1.7 1.7 -2.5 2.6 c -2.1 2.1 -4.1 4.3 -6.2 6.4 c -4.4 -3.7 -8.4 -7.4 -12.2 -11.8 c -1.7 -1.5 -1.7 -1.5 -4.1 -0.9 c -2.6 0.7 -4.9 1.5 -7.3 2.5 c -7.2 2.7 -14.7 4.3 -22.2 6 c -2.4 0.5 -4.9 1.1 -7.3 1.7 c -1.6 0.4 -3.1 0.7 -4.7 1 c -0.7 0.2 -1.4 0.3 -2.2 0.5 c -6.1 1.3 -10.4 0.8 -15.9 -2 h -3 l -4 8 c -20 3.5 -20 3.5 -27.4 -1.7 c -2.2 -2.4 -3.8 -4.8 -5.4 -7.5 c -0.9 -1.5 -0.9 -1.5 -1.8 -3 c -7.5 -14.5 -6.1 -30.8 -5.6 -46.7 c 0.2 -6.8 0.2 -13.6 0.3 -20.3 c 0 -2.3 0.1 -4.7 0.2 -7 c 0.2 -7.7 0 -13.2 -4.2 -19.8 v -2 c 1.2 -1.2 1.2 -1.2 3.1 -2.7 c 4.4 -3.8 8.6 -7.7 12.8 -11.8 c 0.7 -0.6 1.3 -1.2 2 -1.9 c 4.4 -4.3 6.2 -7.6 7.1 -13.7 c 0.3 -1.5 0.6 -3 0.9 -4.5 c 0.3 -1.5 0.5 -3.1 0.8 -4.6 c 0.1 -0.8 0.3 -1.5 0.4 -2.3 c 0.4 -2.2 0.7 -4.4 1 -6.5 c 0.1 -1 0.3 -2 0.5 -3 c -0.7 -4.8 -3.4 -8 -6.3 -11.8 c -0.6 -0.8 -1.2 -1.6 -1.9 -2.4 c -6.7 -8.1 -14.6 -12 -24.3 -15.8 c 1.6 -5.3 5 -8.8 8.4 -12.9 c 1.3 -1.5 2.6 -3 3.8 -4.6 c 0.6 -0.8 1.3 -1.5 1.9 -2.3 c 4.4 -5.3 8.6 -10.8 12.8 -16.2 c 0.5 -0.6 0.9 -1.2 1.4 -1.8 c 1.4 -1.8 2.8 -3.6 4.2 -5.4 c 0.6 -0.8 0.6 -0.8 1.3 -1.7 c 3.8 -4.9 4.5 -8.6 5.1 -14.7 c 0.1 -0.9 0.2 -1.7 0.3 -2.6 c 0.2 -1.8 0.4 -3.7 0.5 -5.5 c 0.3 -2.8 0.6 -5.6 0.8 -8.3 c 0.2 -1.8 0.4 -3.6 0.5 -5.4 c 0.1 -0.8 0.2 -1.6 0.3 -2.5 c 1.4 -11.2 1.4 -11.2 -2.6 -21.2 c -10 -14.7 -8.2 -36.1 -5.8 -52.8 c 1.3 -6.4 3.3 -12.7 5.4 -18.9 c 1.7 -5.1 3.2 -10.2 4.8 -15.3 c 0.5 -1.6 0.5 -1.6 1 -3.2 c 3.4 -11.2 6.3 -22.5 9.2 -33.9 c 0.3 -1 0.5 -2 0.8 -3.1 c 1.8 -7.3 3.6 -14.5 5.4 -21.8 c 1.9 -7.8 3.8 -15.5 5.7 -23.3 c 0.5 -2.2 1.1 -4.4 1.6 -6.5 c 3.1 -12.5 6.2 -24.9 9.7 -37.2 c 12.5 -44.5 16.8 -90.2 21.7 -136.1 c 0.4 -4.2 0.9 -8.3 1.4 -12.5 c 1.5 -12.4 2 -24.7 2.1 -37.3 c 0 -2.5 0.1 -4.9 0.1 -7.4 c 0.8 -18.3 0.8 -18.3 -7.6 -33.7 c -3.8 -4.9 -4.4 -10.6 -5.2 -16.6 c -0.3 -1.8 -0.3 -1.8 -0.6 -3.6 c -0.5 -2.9 -0.9 -5.7 -1.3 -8.6 c 2.5 -2 5 -4.1 7.5 -6.1 c 1 -0.9 1 -0.9 2.1 -1.7 c 0.7 -0.6 1.4 -1.1 2.1 -1.7 c 0.7 -0.6 1.4 -1.2 2.1 -1.8 c 2.1 -1.7 2.1 -1.7 4.2 -2.9 c 6.7 -4.2 9.2 -10.4 12.1 -17.4 c 0.8 -2 1.7 -3.9 2.6 -5.9 c 6.4 -14.7 8.8 -30.6 11.8 -46.2 c 0.7 -3.5 1.4 -7 2 -10.4 c 1.5 -7.6 3 -15.2 4.5 -22.9 c 0.7 -3.9 1.5 -7.7 2.2 -11.6 c 2.7 -13.8 5.4 -27.6 8 -41.4 c 7.8 -40.6 16 -81 24.6 -121.4 c 3.6 -16.8 7.1 -33.6 10.5 -50.4 c 2.7 -12.9 5.3 -25.8 8.1 -38.6 c 1 -4.9 2.1 -9.8 3.1 -14.7 c 0.8 -4 1.7 -8 2.5 -11.9 c 3.4 -15.9 6.8 -31.6 7.9 -47.9 c 0.1 -1.9 0.3 -3.9 0.4 -5.8 c 0.3 -4.2 0.6 -8.4 1 -12.5 c 0.1 -1 0.2 -2.1 0.2 -3.2 c 0.2 -2.1 0.3 -4.3 0.5 -6.4 c 0.2 -3.2 0.5 -6.3 0.7 -9.5 c 0.1 -0.9 0.1 -1.9 0.2 -2.9 c 0.4 -5.4 1.5 -9.2 4.1 -13.9 c 2.4 -4.8 1.7 -10.6 1.7 -15.8 c 0 -0.7 0 -1.3 0 -2 c 0 -12.7 -2.7 -24.1 -6.8 -36 c -2.9 -8.8 -3.2 -15 -1 -23.9 c 2.1 -9 2.8 -17.9 2.9 -27.2 c 0 -0.8 0 -1.6 0 -2.5 c 0.2 -18.5 -5.1 -34.7 -12 -51.7 c -1.6 -4.1 -2.5 -7.3 -2 -11.7 c 1.2 -2.8 1.2 -2.8 2.9 -5.6 c 0.6 -1 1.2 -2.1 1.9 -3.1 c 0.6 -1.1 1.3 -2.1 2 -3.2 c 1.3 -2.1 2.5 -4.2 3.8 -6.3 c 0.6 -0.9 1.1 -1.9 1.7 -2.8 c 0.6 -1 1.1 -1.9 1.7 -2.9 c 0.7 -1 1.4 -2 2.2 -3 c 3 -5.2 2.5 -11.1 2.5 -17 c 0 -1.3 0 -2.6 0.1 -4 c 0.1 -4.3 0.1 -8.6 0 -13 c 0 -0.7 0 -1.5 0 -2.2 c 0 -24.4 -1.5 -48.4 -4.5 -72.5 c -0.3 -2.3 -0.6 -4.6 -0.8 -6.9 c -2.4 -21.6 -2.4 -21.6 -10.7 -41.5 c -3.1 -5.3 -3.3 -8.9 -1.9 -14.9 c 0.7 -2.2 1.5 -4.4 2.3 -6.5 c 5.7 -14.8 7.1 -30.2 8.9 -45.8 c 0.8 -6.6 1.5 -13.2 2.3 -19.8 c 0.1 -0.8 0.2 -1.5 0.3 -2.3 c 2.3 -18.9 5.4 -37.6 8.6 -56.3 c 0.8 -4.5 1.5 -9 2.3 -13.5 c 2.5 -15 5 -30 7.6 -45 c 1.1 -6.5 2.2 -13.1 3.3 -19.6 c 2.1 -12.7 4.3 -25.4 6.4 -38.1 c 2.1 0.6 4.3 1.3 6.4 1.9 c 1.8 0.5 1.8 0.5 3.6 1.1 c 2.9 1 2.9 1 3.9 2 c 0.1 2.2 0.1 4.5 0.2 6.7 c 0.4 9.8 3.2 18.9 5.9 28.3 c 1.5 5.2 2.9 10.5 4.3 15.8 c 0.6 2.2 1.2 4.4 1.8 6.6 c 0.4 1.6 0.4 1.6 0.9 3.3 c 1.8 6.5 3.5 13.1 5.3 19.6 c 1.4 5.3 2.9 10.7 4.3 16 c 1.4 5.4 2.9 10.7 4.3 16.1 c 0.6 2.3 1.2 4.6 1.9 6.9 c 6.3 23.6 13.7 46.7 21.4 69.9 c 1.4 4.2 2.7 8.3 4.1 12.5 c 8.5 26.4 18.2 51.6 30.3 76.5 c 4.1 8.3 7.8 16.8 11.5 25.3 c 0.7 1.6 1.4 3.2 2.1 4.7 c 0.3 0.7 0.6 1.4 0.9 2.1 c 2.7 6.2 5.5 12.3 8.4 18.3 c 10.8 22.4 18.5 45.6 26 69.2 c 2.4 7.3 4.9 14.6 7.5 21.8 c 8.4 23.1 18.2 52 7.1 75.9 c -1.7 3.2 -3.5 6.4 -5.3 9.5 c -24.9 44.6 -22 98.5 -21 147.8 c 0.6 -0.1 1.2 -0.2 1.9 -0.4 c 2.8 -0.5 5.6 -1.1 8.4 -1.6 c 1 -0.2 1.9 -0.4 2.9 -0.6 c 0.9 -0.2 1.9 -0.4 2.8 -0.5 c 0.9 -0.2 1.7 -0.3 2.6 -0.5 c 2.4 -0.4 2.4 -0.4 6.4 -0.4 c 0.1 -1.1 0.3 -2.2 0.4 -3.3 c 0.8 -5.9 1.7 -11.8 2.6 -17.7 c 0.2 -1.1 0.2 -1.1 0.3 -2.2 c 0.7 -4.8 1.5 -9.6 2.2 -14.4 c 0.3 -1.6 0.5 -3.3 0.8 -4.9 c 0.4 -2.3 0.7 -4.6 1.1 -7 c 0.1 -0.7 0.2 -1.4 0.3 -2.1 c 0.7 -4.3 1.8 -6.7 5.3 -9.4 c 3.3 -1.3 3.3 -1.3 6 -2 c 1.6 12.4 3.1 24.8 4.2 37.2 c 0.1 0.9 0.2 1.8 0.3 2.7 c 0.1 1.7 0.3 3.3 0.4 5 c 0.1 1.7 0.3 3.4 0.5 5.2 c -0.6 4.7 -2.4 8.3 -5.4 11.9 c -2.9 2.2 -6 3.8 -9.3 5.3 c -0.8 0.4 -1.6 0.8 -2.5 1.2 c -1.6 0.8 -3.2 1.6 -4.9 2.3 c -2.3 1.1 -4.6 2.3 -6.8 3.4 c -3.5 1.7 -3.5 1.7 -5.5 1.7 c -0.5 11.3 -0.5 11.3 4.4 21 c 2.9 2.8 5.2 3.2 9.1 3.3 c 1.8 -0.1 3.6 -0.1 5.4 -0.3 c 0.9 -0.1 1.8 -0.1 2.7 -0.2 c 19.4 -1.5 35.3 -8.3 52.5 -16.6 c 2.8 -1.2 2.8 -1.2 4.8 -1.2 c 0.2 -1.2 0.4 -2.4 0.6 -3.6 c 0.9 -4.1 2.3 -7.8 4 -11.7 c 15.2 -37.1 10.8 -78.7 0.4 -116.7 l -1 -2 c -0.1 -2 -0.1 -4 -0.1 -6 c 0 -1.3 0 -2.5 0 -3.9 c 0 -0.7 0 -1.4 0 -2.1 c 0 -3.7 0 -7.4 0 -11.1 c 0 -4.7 0 -9.4 0.1 -14 c 0.2 -18.5 -1.1 -34.9 -6.5 -52.6 c -2.9 -9.6 -5 -19.2 -6.6 -29.1 c -0.1 -0.7 -0.2 -1.4 -0.3 -2.1 c -0.7 -4.3 -1.3 -8.6 -1.9 -13 c -0.6 -3.9 -1.1 -7.7 -1.7 -11.6 c -1 -7 -2.1 -14 -3.1 -21 c -1 -7 -2.1 -14 -3.1 -21 c -1.1 -7.6 -2.3 -15.3 -3.4 -22.9 c -2.3 -15.7 -4.7 -31.3 -7.1 -47 c -0.2 -1.2 -0.4 -2.3 -0.5 -3.5 c -0.2 -1.1 -0.3 -2.2 -0.5 -3.4 c -0.2 -1.1 -0.3 -2.2 -0.5 -3.4 c -0.4 -2.3 -0.7 -4.6 -1.1 -6.9 c -0.9 -5.9 -1.8 -11.8 -2.5 -17.8 c -3.1 -26.5 -10.5 -50.6 -19.4 -75.7 c -3.9 -11.2 -7.7 -22.5 -11.5 -33.8 c -0.4 -1.1 -0.7 -2.2 -1.1 -3.3 c -15.2 -45.2 -25 -88.8 -26.2 -136.8 c 0 -0.7 -0.1 -1.4 -0.1 -2.1 c -0.1 -1.9 -0.1 -1.9 0.1 -4.9 c 2.3 -2.4 2.3 -2.4 5.4 -4.4 c 1 -0.7 2 -1.3 3 -2 c 2.6 -1.6 2.6 -1.6 4.6 -2.6 c 1.5 -23.4 -1.5 -42.3 -9.1 -64.3 c -1.3 -3.8 -2.5 -7.7 -3.8 -11.5 c -0.3 -0.8 -0.5 -1.6 -0.8 -2.4 c -0.5 -1.6 -1 -3.2 -1.5 -4.8 c -0.8 -2.4 -1.5 -4.8 -2.3 -7.1 c -4.8 -14.7 -9 -29.6 -13.1 -44.5 c -0.5 -2 -1.1 -4 -1.6 -5.9 c -2 -7.4 -4 -14.7 -6 -22.1 c -1.4 -5.2 -2.8 -10.3 -4.2 -15.5 c -0.2 -0.8 -0.4 -1.5 -0.6 -2.3 c -0.6 -2.3 -1.3 -4.7 -1.9 -7 c -2.6 -9.7 -5.3 -19.5 -7.9 -29.2 c -1.5 -5.4 -2.9 -10.8 -4.4 -16.3 c -0.9 -3.4 -1.9 -6.8 -2.8 -10.2 c -4.3 -16.3 -8.9 -32.1 -16.1 -47.4 c -1.2 -2.6 -2.4 -5.2 -3.5 -7.8 c -4.6 -10.1 -9.8 -18.7 -17 -27.1 c -1.2 -1.4 -2.2 -2.9 -3.3 -4.3 c -5.1 -7.2 -11.1 -10.6 -18.9 -14.5 c -1.2 -0.6 -2.5 -1.3 -3.7 -1.9 c -2.5 -1.3 -5.1 -2.6 -7.6 -3.9 c -5.6 -2.8 -11.1 -5.7 -16.6 -8.6 c -1 -0.5 -2 -1.1 -3.1 -1.6 c -7.8 -4.1 -15.6 -8.2 -23.3 -12.5 c -4.7 -2.6 -9.4 -5.1 -14.1 -7.6 c -8.6 -4.5 -16.9 -9.3 -25.2 -14.2 c -8.5 -5 -17.1 -9.9 -25.8 -14.6 c -1.9 -1.1 -3.9 -2.2 -5.8 -3.3 c -1.9 -1.1 -3.8 -2.1 -5.7 -3 c -9.1 -5 -12.9 -12.3 -17.8 -21.1 c -0.8 -1.4 -1.6 -2.8 -2.4 -4.1 c -0.4 -0.7 -0.8 -1.4 -1.2 -2.1 c -0.8 -1.4 -1.6 -2.7 -2.4 -4.1 c -2 -3.4 -3.7 -6.8 -5.1 -10.5 c -1.8 -4.2 -3.5 -8 -7.3 -10.7 c -8 -2.6 -16.8 -1.7 -25.1 -1.4 c -2.3 0 -4.6 0 -7 0.1 c -5.7 0 -11.3 0.2 -17 0.4 c -0.9 -1.7 -0.9 -1.7 -1.8 -3.5 c -0.4 -0.8 -0.8 -1.5 -1.2 -2.3 c -0.9 -1.7 -1.8 -3.4 -2.7 -5.1 c -2.2 -4.3 -4.5 -8.6 -7.1 -12.7 c -9.1 -14.8 -8.7 -30.1 -8.4 -46.9 c 0 -2.4 0.1 -4.7 0.1 -7.1 c 0.1 -19.3 1.3 -37.7 5.7 -56.6 c 4.4 -19.1 5.5 -37.7 5.6 -57.2 c 0 -2.2 0 -4.4 0.1 -6.6 c 0.5 -31.4 -5.9 -57 -24.8 -82.8 c -2 -2.7 -3.9 -5.5 -5.8 -8.2 c -1.2 -1.7 -2.4 -3.4 -3.6 -5 c -0.5 -0.7 -1.1 -1.5 -1.6 -2.2 c -0.5 -0.6 -0.9 -1.3 -1.4 -2 c -0.9 -1.9 -0.9 -1.9 -0.6 -4 c 1.4 -3.4 4.6 -4.2 7.7 -5.8 c -0.9 -0.8 -1.8 -1.6 -2.7 -2.4 c -9.5 -8.7 -15.4 -17.6 -20.2 -29.6 v -2 h -40 l -5 -14 c -3.1 -2.1 -4.1 -2.7 -7.5 -3.3 c -0.7 -0.2 -1.4 -0.4 -2.1 -0.5 c -2.2 -0.6 -4.5 -1 -6.7 -1.5 c -1.5 -0.4 -3 -0.7 -4.6 -1.1 c -3.7 -0.9 -7.4 -1.7 -11.1 -2.5 v -1 z m -154 851 h 2 c 3.3 6.9 4.5 11.9 2.8 19.5 c -3.1 14.3 -4.4 28.3 -4.9 42.8 c -0.1 2 -0.2 4 -0.2 6 c -0.2 5.2 -0.4 10.4 -0.6 15.6 c -0.2 6.3 -0.5 12.6 -0.8 18.9 c -0.2 5.8 -0.5 11.6 -0.7 17.4 c -0.1 2.6 -0.2 5.2 -0.3 7.9 c -0.1 3.1 -0.2 6.2 -0.2 9.4 c 0 10.7 -3 18.4 -8 27.7 c -1.3 2.4 -2.5 4.8 -3.8 7.2 c -2.6 5.1 -5.3 10.2 -8 15.3 c -16 28.8 -16 28.8 -24.3 60.3 c -0.2 1.2 -0.3 2.3 -0.5 3.5 c -0.3 3 -0.5 6 -0.6 9 c -0.1 1.1 -0.1 2.3 -0.2 3.4 c -0.2 2.7 -0.3 5.4 -0.4 8.1 c -0.5 9.8 -1 19.6 -1.6 29.3 c -0.2 3.6 -0.4 7.2 -0.6 10.8 c -0.1 2.3 -0.2 4.5 -0.4 6.8 c 0 1 -0.1 2 -0.1 3.1 c -0.7 13.3 -3.4 24.8 -7.9 37.2 c -7.4 20.7 -11.5 41.3 -14.8 63 c -0.6 3.7 -1.2 7.4 -1.8 11.2 c -3.6 22.4 -6.6 44.8 -8.7 67.4 c -1.6 17.9 -4.6 35.4 -8 53 c -10.4 54.2 -13.7 106.8 -13.4 161.8 c 0 9.5 0.1 19 0.1 28.5 c 0 17 0 33.9 0.1 50.9 c 0.1 16.4 0.1 32.8 0.1 49.1 c 0 1.5 0 1.5 0 3.1 c 0 1 0 2 0 3.1 c 0 2 0 4.1 0 6.1 c 0 1 0 2 0 3.1 c 0 15.8 0 31.5 0.1 47.3 c 0 5.7 0 11.3 0 17 c 0 9 0 17.9 0.1 26.9 c 0 4.1 0 8.2 0 12.2 c 0 16.2 0.4 32.1 2.8 48.2 c 1 6.6 1.7 12.3 -2.2 18 c -0.6 0.9 -1.2 1.8 -1.8 2.7 c -1.3 1.8 -2.5 3.7 -3.8 5.5 c -3.5 5.2 -3.5 5.2 -4.7 11.3 c 1.2 3.4 2.6 6.6 4 9.9 c 6.2 14.5 6 28.9 5.8 44.4 c -0.1 11 0.8 21.5 2.6 32.4 c 1.6 9.7 2.7 19.3 3.7 29.1 c 0.2 1.6 0.3 3.3 0.5 4.9 c 0.3 2.5 0.5 5.1 0.8 7.6 c 3.6 34.7 8.3 68.8 15.1 103.1 c 1 5.1 2 10.3 2.9 15.4 c 0.2 1 0.4 2 0.6 3 c 0.4 2 0.7 4 1.1 6 c 0.6 3 1.1 5.9 1.7 8.9 c 2.9 15.5 5.7 31 8.4 46.5 c 3.2 18.1 6.5 36.1 9.9 54.1 c 3.2 16.8 5.7 33.6 7.8 50.6 c 0.3 2.2 0.6 4.5 0.9 6.7 c 0.1 0.7 0.2 1.5 0.3 2.3 c 0.2 1.5 0.4 3 0.6 4.6 c 0.5 3.9 1 7.8 1.5 11.6 c 0.5 3.8 1 7.6 1.5 11.4 c 0.2 1.4 0.4 2.9 0.5 4.3 c 1.1 9.2 2.3 15.9 8.6 22.9 c 7 8.1 7 8.1 8 12.1 c -0.2 2.4 -0.9 4.4 -1.6 6.7 c -0.2 1 -0.4 1.9 -0.7 2.9 c -1.8 7.2 -4.2 13.3 -7.7 19.7 c -0.4 0.7 -0.8 1.5 -1.2 2.3 c -1.7 3.1 -3.3 6.1 -5.1 9.2 c -6.4 11.3 -8.3 19 -5.7 31.9 c 0.5 3 0.5 5.9 0.6 8.9 c 0.2 10.3 6.9 16.5 13.9 23.2 c 6 6.1 6 6.1 12.9 10.9 c 2 95.8 2 95.8 -4.1 133.3 c -0.3 2 -0.6 3.9 -0.9 5.9 c -4.3 27.5 -4.3 27.5 -15 36.8 c -3.6 1 -6.4 1 -10 0 c -0.3 1.3 -0.3 1.3 -0.5 2.7 c -3.5 17 -8.6 33.6 -13.5 50.3 c -0.7 -0.2 -1.5 -0.5 -2.2 -0.7 c -1 -0.3 -2 -0.6 -3 -0.9 c -1 -0.3 -1.9 -0.6 -2.9 -0.9 c -3.1 -0.6 -4.9 -0.6 -7.9 0.4 c -1.9 3 -1.9 3 -3 6 c -2.1 -3.2 -2.9 -5.7 -3.9 -9.4 c -0.4 -1.3 -0.7 -2.5 -1.1 -3.8 c -0.4 -1.3 -0.7 -2.6 -1.1 -4 c -0.4 -1.3 -0.8 -2.7 -1.1 -4 c -0.9 -3.3 -1.8 -6.5 -2.7 -9.8 c -1.9 2.9 -2.9 5.2 -3.9 8.5 c -0.4 1.1 -0.7 2.1 -1.1 3.3 c -0.4 1.1 -0.7 2.2 -1.1 3.4 c -0.4 1.1 -0.7 2.3 -1.1 3.4 c -0.9 2.8 -1.8 5.6 -2.7 8.4 c -3.9 -1.2 -7.1 -2.1 -10 -5 c -1 -3 -1 -3 -1.7 -6.8 c -0.2 -1 -0.2 -1 -0.4 -2.1 c -0.4 -2.3 -0.9 -4.5 -1.3 -6.8 c -0.3 -1.6 -0.6 -3.1 -0.9 -4.7 c -0.8 -4.1 -1.6 -8.2 -2.4 -12.4 c -0.8 -4.2 -1.6 -8.4 -2.5 -12.6 c -1.6 -8.2 -3.2 -16.5 -4.8 -24.7 h -1 c -0.7 3.1 -1.4 6.2 -2.1 9.3 c -0.2 0.9 -0.4 1.7 -0.6 2.6 c -2.2 10.2 0.6 18.8 3.4 28.7 c 4.2 15 5.2 28.9 4.3 44.4 c -8 -2.3 -8 -2.3 -10.2 -6.1 c -0.8 -2.5 -1.4 -5 -1.9 -7.6 c -0.2 -0.9 -0.4 -1.8 -0.6 -2.7 c -0.5 -2.2 -0.9 -4.4 -1.3 -6.6 l -5 18 c -1.8 0.4 -3.7 0.8 -5.6 1.3 c -1.9 0.4 -3.8 0.9 -5.7 1.3 c -1.9 0.4 -3.7 0.8 -5.6 1.3 c -1.3 0.3 -2.5 0.6 -3.8 0.9 c -0.7 0.2 -1.4 0.3 -2.1 0.5 c -4.4 1 -8.5 2.3 -12.7 3.8 c -22.7 8.1 -45.7 7.1 -69.5 6.8 c -4.5 0 -9.1 0 -13.6 0 c -4.4 0 -8.8 0 -13.2 0 c -2.1 0 -4.2 0 -6.3 0 c -2.9 0 -5.8 0 -8.7 -0.1 c -1.3 0 -1.3 0 -2.6 0 c -5.9 -0.1 -8.5 -1.5 -12.7 -5.7 c -0.3 0.9 -0.6 1.9 -0.9 2.8 c -1.1 3.2 -1.1 3.2 -3.1 6.2 c -7.8 1.4 -16.8 -0.6 -24.6 -1.5 c -17.1 -1.8 -32.9 -1.7 -50 0.4 c -5.9 0.7 -11.5 1.2 -17.4 1.1 v -9 c -1.3 0.4 -2.6 0.8 -3.9 1.2 c -1.7 0.5 -3.5 1 -5.2 1.5 c -0.9 0.3 -1.7 0.5 -2.6 0.8 c -5.1 1.4 -8.3 2 -13.3 -0.4 c -0.6 -0.3 -1.2 -0.5 -1.8 -0.8 c -1.9 -0.9 -3.7 -1.8 -5.6 -2.8 c -0.6 -0.3 -1.3 -0.6 -1.9 -1 c -1.6 -0.8 -3.1 -1.6 -4.7 -2.4 l -1 13 c -11.5 -0.6 -22.7 -2.5 -34 -4.4 c -2.8 -0.5 -5.5 -0.9 -8.3 -1.4 c -1.8 -0.3 -3.6 -0.6 -5.4 -0.9 c -4.9 -0.8 -9.8 -1.6 -14.7 -2.4 c -18.9 -2.9 -18.9 -2.9 -22.5 -6.9 c -1.1 -2.2 -1.1 -2.2 -2.2 -6 c -1.6 2 -2.9 3.7 -3.8 6.1 c -1.2 1.9 -1.2 1.9 -3.2 2.7 c -0.8 0.1 -1.7 0.3 -2.5 0.4 c -1.4 0.2 -1.4 0.2 -2.8 0.5 c -1 0.2 -1.9 0.3 -2.9 0.5 c -1.4 0.2 -1.4 0.2 -2.9 0.5 c -1.8 0.3 -3.7 0.6 -5.5 0.9 c -1.8 0.3 -3.7 0.6 -5.5 1 c -4 0.6 -8 0.7 -12 0.7 c -1.2 0 -1.2 0 -2.4 0.1 c -6 0.1 -6 0.1 -8.7 -2.5 c -0.9 -1 -0.9 -1 -1.8 -1.9 c -2.6 -0.1 -2.6 -0.1 -5.3 0.6 c -1.5 0.3 -1.5 0.3 -2.9 0.7 c -2.3 0.6 -4.6 1.2 -6.9 1.8 c -4.6 1.2 -9.2 1 -13.9 0.9 c 0.6 -3 1.3 -5.9 1.9 -8.9 c 0.3 -1.3 0.3 -1.3 0.6 -2.6 c 0.2 -0.8 0.4 -1.6 0.5 -2.4 c 0.2 -0.7 0.3 -1.5 0.5 -2.3 c 0.5 -1.9 0.5 -1.9 1.5 -3.9 h -11 c -0.3 1.4 -0.6 2.7 -0.9 4.1 c -0.8 3.7 -1.8 7.3 -3.1 10.9 c -3.6 1 -6.4 1 -10 0 c -3.9 -2.9 -7.1 -6.5 -10.3 -10.1 c -2.3 -2.9 -2.3 -2.9 -4.7 -3.9 v 9 c -4.7 1.7 -9.3 3.1 -14.2 4.1 c -0.9 0.2 -1.8 0.4 -2.7 0.5 c -1 0.2 -1 0.2 -2.1 0.4 c -2.2 -7.4 -4.3 -14.8 -6.5 -22.2 c -0.7 -2.5 -1.5 -5 -2.2 -7.5 c -7 -24 -13.4 -48 -18.5 -72.5 c -0.4 -2.1 -0.9 -4.1 -1.3 -6.2 c -2.1 -9.7 -2.1 -9.7 -2.9 -13.9 c -0.4 -1.7 -0.7 -3.4 -1.1 -5.1 c -1.2 -5.4 -1.7 -10.4 -1.5 -15.9 c 0 -1.6 0 -3.1 0 -4.7 c 0 -2.4 0 -4.8 0.1 -7.2 c 0.2 -9.7 -0.6 -16.8 -5.5 -25.3 c -6.1 -10.7 -6.2 -21 -6 -33.1 c 0 -1.7 0 -1.7 0 -3.5 c 0.2 -28.3 6.7 -55.1 13.3 -82.4 c 2.5 -10.2 4.8 -20.4 7 -30.6 c 0.2 -0.7 0.3 -1.4 0.5 -2.2 c 0.8 -3.6 1.5 -7.2 2.3 -10.8 c 1.4 -6.4 2.8 -12.8 4.2 -19.2 c 0.5 -2.1 0.9 -4.3 1.4 -6.4 c 2 -9.1 3.9 -18.1 5.9 -27.2 c 1.2 -5.5 2.4 -10.9 3.6 -16.4 c 0.8 -3.7 1.6 -7.4 2.4 -11.1 c 3 -13.8 6 -27.5 8.7 -41.4 c 0.3 -1.5 0.3 -1.5 0.6 -2.9 c 0.4 -2 0.7 -3.9 1.1 -5.9 c 0.4 -2.4 0.9 -4.8 1.4 -7.2 c 2.5 -13 2.8 -25.9 2.8 -39.2 c 0 -1.2 0 -2.4 0 -3.6 c 0 -6.3 0.1 -12.5 0.1 -18.8 c 0 -5.1 0.1 -10.2 0.1 -15.3 c 0.3 -26.4 0.1 -51.2 -6.6 -76.9 c -3.8 -14.6 -4.6 -28.5 -4.3 -43.6 c 0 -1.3 0 -2.6 0 -3.9 c 0.2 -22.8 3.1 -44.5 7.9 -66.8 c 1.1 -5.1 2 -10.2 2.9 -15.3 c 0.1 -0.8 0.3 -1.6 0.4 -2.5 c 0.3 -1.6 0.6 -3.3 0.9 -4.9 c 2.8 -15.7 6.2 -31.1 9.9 -46.6 c 1.6 -6.5 3.1 -13 4.6 -19.5 c 0.8 -3.4 1.6 -6.9 2.4 -10.3 c 2 -8.3 3.9 -16.7 5.9 -25 c 1 0 2.1 0.1 3.2 0.1 c 23.5 0.8 43.3 -1.5 65.4 -9.5 c 13.6 -4.9 27.2 -8.3 41.5 -11 c 1 -0.2 2 -0.4 3 -0.6 c 16 -3 16 -3 18.9 -3 c -0.1 -0.7 -0.3 -1.4 -0.4 -2.1 c -1.7 -8.5 -3.4 -17 -5.1 -25.5 c -0.5 -2.4 -0.9 -4.8 -1.4 -7.2 c -3.5 -17.8 -7 -35.6 -10.4 -53.5 c -9.6 -50.3 -19.7 -100.5 -30.3 -150.7 c -1 -5 -2.1 -9.9 -3.1 -14.9 c -0.4 -2.1 -0.9 -4.3 -1.3 -6.4 c -3.7 -17.8 -7.4 -35.6 -10.9 -53.5 c -12.4 -63.1 -27.1 -125.5 -42.6 -187.8 c -1.6 -6.6 -3.2 -13.1 -4.9 -19.7 c -16.3 -67.5 -16.3 -67.5 -39.7 -132.8 c -0.4 -0.9 -0.8 -1.9 -1.2 -2.8 c -3.4 -8.1 -6.8 -16.1 -10.4 -24.1 c -6 -13.5 -3.9 -26.3 -2.2 -40.6 c 1.7 -14.5 2.3 -28.9 2.4 -43.5 c 0 -1.6 0 -1.6 0 -3.3 c 0.1 -6.7 0.1 -13.3 0.1 -20 c 0 -5.8 0.1 -11.5 0.1 -17.3 c 0.1 -11.2 0.1 -22.3 0.2 -33.5 c 10.1 3.9 10.1 3.9 12.3 8.8 c 0.5 1.5 1.1 3 1.5 4.5 c 0.3 0.8 0.6 1.6 0.9 2.5 c 0.6 1.8 1.2 3.6 1.8 5.3 c 1 2.9 2 5.7 3 8.6 c 1.1 3 2.1 6.1 3.2 9.1 c 3.8 10.9 7.9 21.6 12.1 32.3 c 1.5 4 3.1 7.9 4.6 11.9 c 0.4 1 0.8 2 1.2 3 c 2.7 7 5.2 14 7.7 21 c 8.4 23.3 18 45.8 29 68 c 1 1.9 1.9 3.9 2.9 5.8 c 7.1 14.5 14.7 27.9 25.2 40.2 c 3 3.6 5.8 7.3 8.6 11 c 1.2 1.5 2.3 3 3.5 4.5 c 21 27 21 27 22.8 29.3 c 1.2 1.5 2.3 3 3.5 4.5 c 3 3.8 5.9 7.6 8.9 11.4 c 6.7 8.6 13.3 17.1 20.1 25.7 c 2.3 2.9 4.6 5.8 6.8 8.7 c 0.9 1.2 1.8 2.3 2.8 3.5 c 1.8 2.3 3.7 4.7 5.5 7 c 0.7 0.9 0.7 0.9 1.4 1.8 c 0.9 1.2 1.8 2.3 2.7 3.5 c 2.3 2.9 4.6 5.9 6.9 8.8 c 0.5 0.6 0.9 1.2 1.4 1.8 c 1.3 1.6 2.5 3.2 3.8 4.8 c 0.7 0.9 0.7 0.9 1.4 1.8 c 1.2 1.6 2.5 3.1 3.7 4.7 c 9.2 11.6 17.1 24.1 25.1 36.6 c 6.2 9.6 12.5 18.9 19.6 27.9 c 18.4 23.4 22.3 41.1 20.4 70.7 c -0.4 7.8 0.4 14.9 2 22.4 c 1.9 9.7 0.6 18.8 -1.2 28.4 c -1.4 7.3 -1.8 12.7 1.9 19.4 v 2 l 25 -5 c 5.2 11.4 5.2 11.4 6.9 17.9 c 1.5 4.2 1.5 4.2 4.8 7.2 c 4.3 1.9 8.7 3 13.3 3.9 v -9 h 14 l 5 18 l 15 1 c 0.3 -1.6 0.5 -3.1 0.8 -4.7 c 0.4 -2 0.7 -4.1 1.1 -6.1 c 0.3 -1.5 0.3 -1.5 0.5 -3.1 c 0.3 -1.5 0.3 -1.5 0.5 -3 c 0.2 -0.9 0.3 -1.8 0.5 -2.7 c 0.6 -2.4 0.6 -2.4 2.6 -5.4 c 2.3 -0.8 2.3 -0.8 5.2 -1.4 c 1.5 -0.3 1.5 -0.3 3.1 -0.7 c 1.1 -0.2 2.2 -0.4 3.3 -0.6 c 1.1 -0.2 2.2 -0.4 3.3 -0.7 c 2.7 -0.6 5.4 -1.1 8.1 -1.6 c 0.2 -1 0.4 -2 0.7 -3.1 c 0.8 -3.8 1.8 -7.5 2.7 -11.3 c 0.4 -1.6 0.8 -3.2 1.1 -4.9 c 2.4 -10.9 2.4 -10.9 5.5 -14.8 c 5.6 -3.5 12.6 -4 19 -4 c -0.7 -4.1 -1.5 -8.2 -2.3 -12.3 c -0.2 -1.2 -0.4 -2.3 -0.6 -3.5 c -0.2 -1.1 -0.4 -2.2 -0.6 -3.4 c -0.2 -1 -0.4 -2.1 -0.6 -3.1 c -0.7 -2.9 -0.7 -2.9 -2.9 -4.8 c -2.5 -2.6 -2.8 -4.3 -3.3 -7.8 c -0.2 -1.2 -0.4 -2.3 -0.6 -3.5 c -0.2 -1.3 -0.4 -2.5 -0.6 -3.8 c -0.2 -1.3 -0.4 -2.7 -0.6 -4 c -1 -6.4 -1.9 -12.8 -2.8 -19.2 c -0.5 -3.5 -0.9 -7 -1.4 -10.5 c -0.1 -0.7 -0.2 -1.4 -0.3 -2.1 c -1.5 -10.5 -4.1 -20.1 -8.6 -29.9 c -0.4 -0.8 -0.8 -1.7 -1.2 -2.6 c -0.4 -0.7 -0.7 -1.4 -1.1 -2.2 c -1.6 -6.1 1 -11.4 3.7 -16.7 c 0.5 -1 0.5 -1 1 -2.1 c 0.7 -1.5 1.5 -3 2.2 -4.4 c 2 -3.9 3.9 -7.9 5.9 -11.9 c 0.4 -0.8 0.8 -1.6 1.2 -2.4 c 3.3 -6.8 6.5 -13.6 9.7 -20.5 c 5.5 -12 11.2 -23.8 17 -35.6 c 0.4 -0.9 0.8 -1.7 1.3 -2.6 c 15.1 -30.9 15.1 -30.9 23 -45.5 c 1.2 -2.3 2.4 -4.5 3.7 -6.8 c 0.6 -1.1 1.2 -2.3 1.9 -3.4 c 3 -5.5 5.9 -10.9 8.8 -16.4 c 1.2 -2.2 2.3 -4.3 3.5 -6.5 l 1.8 -3.3 c 19.3 -35.8 19.3 -35.8 21 -39 c 1.2 -2.2 2.3 -4.3 3.5 -6.5 c 2.9 -5.4 5.8 -10.8 8.7 -16.2 c 7.9 -14.7 15.8 -29.3 23.6 -44 c 3.1 -5.8 6.3 -11.7 9.4 -17.5 c 1.3 -2.3 2.5 -4.7 3.8 -7 c 7.5 -14 7.5 -14 9.4 -17.5 c 1.2 -2.3 2.5 -4.6 3.7 -7 c 2.9 -5.4 5.8 -10.8 8.7 -16.2 c 1.3 -2.5 2.7 -5 4 -7.5 c 0.9 -1.7 1.9 -3.5 2.8 -5.2 c 0.6 -1.1 1.2 -2.2 1.8 -3.3 c 0.5 -0.9 1 -1.9 1.5 -2.8 c 0.6 -1.2 1.2 -2.3 1.8 -3.5 c 0.5 -0.9 0.9 -1.7 1.4 -2.6 c 3.9 -7.5 6.8 -15.1 9.5 -23.1 c 0.4 -1.3 0.9 -2.6 1.3 -3.9 c 0.9 -2.7 1.9 -5.5 2.8 -8.2 c 1.5 -4.3 2.9 -8.6 4.4 -12.9 c 1.5 -4.3 3 -8.7 4.4 -13 c 3.9 -11.3 7.8 -22.7 11.7 -34 c 0.9 -2.5 1.8 -5.1 2.7 -7.6 c 1.1 -3.1 2.2 -6.2 3.3 -9.3 c 1 -2.9 2 -5.8 2.9 -8.6 c 5.4 -16 13.3 -30.8 20.9 -45.8 c 1.9 -3.7 3.8 -7.5 5.7 -11.2 c 3.7 -7.3 7.3 -14.6 11 -21.8 z m 176 706 h 5 c 0.1 31.5 0.1 62.9 0.2 94.4 c 0 3.7 0 7.5 0 11.2 c 0 0.7 0 1.5 0 2.3 c 0 11.9 0 23.9 0.1 35.8 c 0 12.3 0 24.7 0.1 37 c 0 6.9 0 13.8 0 20.7 c 0.1 25.8 0 51.5 -2 77.3 c -1.8 22.9 -1.7 45.7 -1.7 68.7 c 0 6.1 0 12.2 0 18.3 c 0 18 0 36 0 54.1 c 0 14.1 0 28.3 0 42.4 c 0 7.2 0 14.5 0 21.7 c 0 4.5 0 8.9 0 13.4 c 0 2.1 0 4.1 0 6.2 c 0 2.8 0 5.7 0 8.5 c 0 0.8 0 1.6 0 2.5 c -0.1 5.1 -1.1 8.5 -3.6 12.9 c -1.5 3.1 -1.3 6.1 -1.2 9.5 c 0 1.6 0 3.1 0.1 4.7 c 0 0.8 0 1.7 0 2.5 c 0.3 25.1 -3.8 49.4 -7.9 74 c -0.9 5.4 -1.8 10.8 -2.6 16.1 c -0.2 1.3 -0.4 2.7 -0.7 4 c -4.5 27.3 -6.6 54.6 -8.7 82.2 c -0.5 6.2 -0.9 12.5 -1.4 18.7 c -0.1 1.3 -0.2 2.5 -0.3 3.8 c -0.2 2.6 -0.4 5.2 -0.6 7.8 c -0.3 3.9 -0.6 7.8 -0.9 11.8 c -2.2 28.3 -4.5 56.7 -6.8 85 c -0.7 8 -1.3 16.1 -2 24.1 c -0.3 3 -0.5 6.1 -0.8 9.1 c -0.8 10.2 -1.6 20.3 -2.3 30.5 c -3.5 -2.8 -6.7 -5.6 -9.7 -8.9 c -8.5 -9.3 -17.9 -14.8 -29.3 -20.1 c 1.9 -11.6 4.4 -20.1 12.1 -29.1 c 8.9 -10.7 10.1 -22.3 10.9 -35.9 c 0.1 -0.8 0.2 -1.7 0.3 -2.5 c 0.9 -10.1 -4.5 -19.3 -8.5 -28.2 c -1.2 -2.6 -2.3 -5.2 -3.5 -7.9 c -0.7 -1.6 -1.4 -3.2 -2.2 -4.9 c -0.7 -1.6 -1.4 -3.2 -2.1 -4.8 c -0.9 -2 -1.8 -4 -2.7 -6 c -4.6 -10.3 -5.5 -19.6 -5.9 -30.8 c -0.1 -1.8 -0.2 -3.7 -0.3 -5.5 c -0.2 -3.9 -0.3 -7.8 -0.5 -11.7 c -0.4 -10.3 -0.9 -20.6 -1.5 -30.8 c -0.1 -1 -0.1 -2.1 -0.2 -3.1 c -1 -18.5 -2.5 -36.9 -4.7 -55.3 c -0.1 -1.3 -0.3 -2.6 -0.5 -3.9 c -0.6 -5 -1.2 -9.9 -1.8 -14.9 c -1.5 -12.5 -2.8 -25 -4 -37.5 c -0.4 -3.7 -0.7 -7.4 -1.1 -11.1 c -0.1 -0.9 -0.2 -1.8 -0.3 -2.7 c -0.6 -5.9 -1.3 -11.8 -2 -17.7 c -1.8 -15 -3 -30.1 -4 -45.2 c -0.3 -3.7 -0.5 -7.3 -0.8 -11 c -0.2 -2.2 -0.3 -4.5 -0.5 -6.7 c -0.2 -2.9 -0.4 -5.8 -0.6 -8.7 c -0.1 -1.3 -0.1 -1.3 -0.2 -2.6 c -0.4 -4 -0.7 -7.2 -2.9 -10.7 c -0.4 -0.7 -0.8 -1.4 -1.2 -2.2 c -0.8 -1.4 -1.7 -2.8 -2.6 -4.2 c -3.7 -6.6 -4.9 -13.9 -3.7 -21.4 c 1.8 -6 7.5 -10 12.1 -13.9 c 1.7 -1.4 3.3 -2.9 5 -4.3 c 1.5 -1.3 3 -2.6 4.5 -3.9 c 2.5 -3.6 2.3 -5.2 1.6 -9.4 c -0.2 -0.8 -0.4 -1.7 -0.6 -2.5 c -0.3 -1.3 -0.3 -1.3 -0.6 -2.6 c -0.7 -2.8 -1.4 -5.7 -2.2 -8.5 c -0.5 -2.1 -1.1 -4.2 -1.6 -6.4 c -0.9 -3.3 -1.7 -6.6 -2.6 -9.9 c -0.8 -3.2 -1.7 -6.4 -2.5 -9.7 c -0.3 -1 -0.5 -2 -0.8 -3 c -2.4 -9.3 -0.9 -16 2.3 -25 h 11 l 1 -5 c 0.6 -1.7 1.2 -3.3 1.8 -4.9 c 0.4 -1 0.7 -1.9 1.1 -2.9 c 0.4 -1 0.8 -2 1.2 -3 c 1.2 -3.1 2.3 -6.1 3.5 -9.2 c 1 -2.8 2.1 -5.5 3.3 -8.3 c 7.7 -19.2 10.1 -39.6 13.3 -59.9 c 1.4 -8.8 2.8 -17.7 4.2 -26.5 c 0.2 -0.9 0.3 -1.9 0.5 -2.8 c 2.3 -14.3 5.3 -28.1 9.5 -41.9 c 1 -3.3 1.9 -6.6 2.7 -9.9 c 2.8 -10.3 5.6 -20.6 8.7 -30.9 c 3.4 -11.1 6.3 -22.4 9.3 -33.6 c 3.4 -12.8 6.8 -25.7 10.7 -38.4 c 2.5 -8.1 4.6 -16.3 6.7 -24.4 c 2.2 -8.3 4.6 -16.6 8.5 -24.2 z M -97 3360.4 c 7.5 0.4 15.8 2.4 20.1 2.9 h 0 c 1.2 0.1 2.5 0.3 3.8 0.4 c 3 0.3 6.1 0.7 9.1 1 v 1.8 c 0 14.5 0 29 0 43.5 c 0 7 0 14 0 21 c 0 6.8 0 13.6 0 20.4 c 0 2.6 0 5.1 0 7.7 c -0.1 16.4 1.7 30.5 7.1 46.1 c 1.3 3.8 2.3 7.7 3.3 11.6 c 0.4 1.4 0.7 2.7 1.1 4.1 c 0.2 0.7 0.3 1.3 0.5 2 c 3.2 12.3 6.5 24.5 10.3 36.6 c 0.2 0.7 0.4 1.5 0.6 2.2 c 0.3 1.1 0.7 2.2 1 3.4 c 1.4 5.5 1.4 11 1.6 16.6 c 0.1 1.8 0.1 1.8 0.1 3.6 c 0.1 3.2 0.2 6.5 0.3 9.7 c 0.1 3.4 0.2 6.8 0.3 10.2 c 0.2 6.5 0.4 12.9 0.6 19.4 c 0.3 9.4 0.6 18.8 0.8 28.2 c 0 1.4 0.1 2.8 0.1 4.2 c 0 0.7 0 1.4 0.1 2.1 c 0.1 4.7 0.3 9.3 0.4 14 c 0.2 6.1 0.4 12.1 0.6 18.2 c 0.1 3.2 0.2 6.4 0.3 9.6 c 0.4 13.5 1.7 26.7 3.5 40.1 c 0.8 6.2 1.6 12.5 2.4 18.7 c 0.1 0.7 0.2 1.3 0.2 2 c 6.1 49.5 10.1 98.4 9.9 148.3 c 0 2.5 0 5.1 0 7.6 c 0 6 -0.1 11.9 -0.2 17.9 c 0 2.2 -0.1 4.4 -0.1 6.5 c 0 3 -0.1 6 -0.2 8.9 c 0 0.9 0 1.7 0 2.6 c -0.2 6.5 -2.3 10.6 -5.8 16.1 h -10 c -0.1 0.7 -0.2 1.4 -0.3 2.1 c -1.1 7 -2.5 13.8 -4.1 20.7 c -3 13 -5.4 26 -7 39.2 c -0.1 0.7 -0.2 1.4 -0.3 2.1 c -0.5 4.3 -1 8.6 -1.3 12.9 c -0.2 1.8 -0.2 1.8 -0.3 3.6 c 0 3.7 1 6.6 2.3 10 c 9.6 26.3 8.1 53.2 7.7 80.8 c -0.1 6.8 -0.2 13.7 -0.2 20.5 c -0.1 14 -0.3 28 -0.5 42.1 h -44 c -5.7 -11.5 -5.7 -11.5 -5.9 -19.4 c 0 -0.9 -0.1 -1.8 -0.1 -2.7 c -0.1 -1.9 -0.1 -3.8 -0.2 -5.7 c -0.1 -3 -0.2 -6.1 -0.3 -9.1 c -0.2 -4.3 -0.3 -8.7 -0.5 -13 c -1.3 -44.1 -1.3 -44.1 -7.7 -87.6 c -0.2 -0.9 -0.4 -1.8 -0.6 -2.8 c -3.1 -14.7 -9.5 -27.3 -17.4 -40 c -8.3 -13.4 -8.7 -28.9 -9.9 -44.3 c -0.2 -3.6 -0.2 -3.6 -1 -7.2 c -0.7 -3.3 -0.7 -6.7 -0.7 -10.1 c 0 -0.8 0 -1.6 0 -2.4 c 0 -2.6 0 -5.3 0 -7.9 c 0 -0.9 0 -1.8 0 -2.8 c 0 -4.9 0 -9.9 0 -14.8 c 0 -4 0 -7.9 -0.1 -11.9 c -0.2 -21.7 0.3 -43.2 2.1 -64.8 c 2.4 -29.6 2.8 -59 2.6 -88.7 c 0 -7.7 0 -15.5 0 -23.2 c 0 -11.8 0 -23.7 0 -35.5 v -2.2 c 0 -12 -0.1 -24 -0.1 -36 c 0 -12.5 -0.1 -25.1 -0.1 -37.6 c 0 -7 0 -13.9 -0.1 -20.9 c -0.2 -31.6 1.6 -61.7 6.8 -92.8 c 3 -18.1 4.5 -35.6 4.2 -53.9 c 0 -3.6 0 -7.2 0 -10.8 c 0 -6.7 0 -13.4 -0.1 -20.2 c -0.1 -12.2 -0.1 -24.3 -0.1 -36.5 c 0 -4.2 0 -8.5 -0.1 -12.7 c 0 -3.2 0 -6.4 0 -9.6 c 0 -1.2 0 -2.3 -0.1 -3.5 c 0 -1.1 0 -2.1 0 -3.2 c 0 -0.9 0 -1.8 0 -2.8 c 1.2 -6 7.9 -7.2 15.5 -6.8 z"
      opacity="0">
    <animate attributeName="opacity" from="0" to="1" begin="0s" dur="0.4s" fill="freeze" />
  </path>


</svg>